<svg width="16" height="16" viewBox="0 0 16 16" fill="none" xmlns="http://www.w3.org/2000/svg">
<path d="M8.41667 3.41927H7.16667V8.41927L11.125 10.7943L11.75 9.76927L8.41667 7.79427V3.41927ZM8 0.0859375C3.85833 0.0859375 0.5 3.44427 0.5 7.58594C0.5 11.7276 3.85 15.0859 8 15.0859C12.1417 15.0859 15.5 11.7276 15.5 7.58594C15.5 3.44427 12.1417 0.0859375 8 0.0859375ZM8 13.4193C4.775 13.4193 2.16667 10.8109 2.16667 7.58594C2.16667 4.36094 4.775 1.7526 8 1.7526C11.225 1.7526 13.8333 4.36094 13.8333 7.58594C13.8333 10.8109 11.225 13.4193 8 13.4193Z" fill="black"/>
</svg>
