<svg width="16" height="17" viewBox="0 0 16 17" fill="none" xmlns="http://www.w3.org/2000/svg">
<path d="M11.4351 11.0019H10.7124L10.4563 10.7549C11.3528 9.71198 11.8925 8.35806 11.8925 6.88522C11.8925 3.60106 9.23042 0.938965 5.94625 0.938965C2.66209 0.938965 0 3.60106 0 6.88522C0 10.1694 2.66209 12.8315 5.94625 12.8315C7.4191 12.8315 8.77301 12.2917 9.81589 11.3952L10.0629 11.6514V12.3741L14.6369 16.939L16 15.5759L11.4351 11.0019ZM5.94625 11.0019C3.66838 11.0019 1.82962 9.16309 1.82962 6.88522C1.82962 4.60735 3.66838 2.76858 5.94625 2.76858C8.22413 2.76858 10.0629 4.60735 10.0629 6.88522C10.0629 9.16309 8.22413 11.0019 5.94625 11.0019Z" fill="white"/>
</svg>
