<svg width="31" height="31" viewBox="0 0 31 31" fill="none" xmlns="http://www.w3.org/2000/svg">
<g clip-path="url(#clip0)">
<path d="M25.7142 11.1154L25.7139 11.1149C25.112 9.64113 25.5006 7.92828 26.6776 6.84853L26.6782 6.84797C26.8068 6.73039 26.8231 6.53281 26.7145 6.39518L26.7143 6.39491C26.0338 5.53101 25.2612 4.75112 24.4182 4.07584L24.4179 4.07563C24.2823 3.96684 24.0802 3.98189 23.9617 4.11305C22.9265 5.25947 21.095 5.67954 19.6571 5.07962L19.6557 5.07903C18.1687 4.45337 17.2325 2.94814 17.3245 1.33313L17.3246 1.33181C17.3351 1.15633 17.2073 1.0026 17.0295 0.981845L25.7142 11.1154ZM25.7142 11.1154C26.3046 12.5566 27.7105 13.4812 29.2827 13.4812C29.3799 13.4812 29.508 13.521 29.6131 13.5972C29.7195 13.6744 29.7468 13.7456 29.7503 13.7757L25.7142 11.1154ZM26.949 23.6366L26.6135 24.0073C25.4135 22.9211 25.0227 21.1911 25.6477 19.7016C26.2358 18.298 27.6512 17.3617 29.1771 17.3617H29.1903L29.1903 17.3619L29.3759 17.3668L29.3894 17.3672L29.403 17.3683C29.5548 17.3806 29.7223 17.2549 29.7441 17.0724C29.872 15.9834 29.8735 14.8746 29.7503 13.7758L29.1771 17.8617C27.8511 17.8617 26.6183 18.6785 26.1087 19.8951C25.5665 21.1873 25.905 22.6916 26.949 23.6366ZM26.949 23.6366C27.2761 23.9331 27.3154 24.433 27.0384 24.7768C26.3251 25.6653 25.5092 26.4725 24.6119 27.1761M26.949 23.6366L26.6133 24.0071C26.7442 24.1258 26.7598 24.3257 26.6491 24.4631L26.6485 24.4638C25.9595 25.322 25.1714 26.1018 24.3049 26.7814M24.6119 27.1761L24.306 26.7806C24.3056 26.7809 24.3053 26.7811 24.3049 26.7814M24.6119 27.1761C24.2666 27.4432 23.7764 27.404 23.4799 27.0814L24.6119 27.1761ZM24.3049 26.7814C24.1636 26.8898 23.9678 26.8726 23.8488 26.7438M24.3049 26.7814L23.8488 26.7438M23.8488 26.7438C22.8162 25.611 21.0065 25.1894 19.5761 25.7736L19.5757 25.7738C18.1031 26.3765 17.1553 27.8551 17.2127 29.4526C17.2183 29.629 17.0884 29.7781 16.9153 29.7972L16.9148 29.7973C16.3845 29.8563 15.854 29.8853 15.3235 29.8853C14.7644 29.8853 14.2074 29.8532 13.6535 29.7884L13.6521 29.7882C13.4778 29.7683 13.3482 29.6149 13.3586 29.4381L13.3587 29.4369C13.4501 27.8216 12.5143 26.3161 11.0227 25.692C9.58887 25.0904 7.75816 25.5108 6.72005 26.6582C6.59961 26.791 6.39944 26.8057 6.26218 26.6952C5.41557 26.0133 4.64218 25.2327 3.96937 24.3751L3.9681 24.3735C3.86082 24.2379 3.87583 24.041 4.00529 23.922L3.66694 23.5539M23.8488 26.7438L0.932561 16.9957C0.935431 17.0211 0.960785 17.0917 1.07248 17.1706C1.18037 17.2468 1.31255 17.2879 1.41453 17.2891C1.41614 17.2892 1.41774 17.2892 1.41934 17.2892V17.7892M3.66694 23.5539C4.69266 22.6131 5.02998 21.1229 4.50596 19.8444C3.97935 18.5642 2.72581 17.756 1.41934 17.7892M3.66694 23.5539C3.34609 23.8488 3.3051 24.3414 3.57599 24.6838M3.66694 23.5539L3.57599 24.6838M1.41934 17.7892C0.98938 17.7892 0.483008 17.4747 0.435653 17.0512L1.41934 17.7892ZM3.57599 24.6838C4.27256 25.5716 5.07279 26.3792 5.94853 27.0846L3.57599 24.6838ZM13.7677 0.97332L13.7674 0.973344C13.5942 0.992493 13.4642 1.14192 13.4697 1.31786C13.5254 2.91531 12.58 4.39383 11.1055 4.99782L11.1051 4.998C9.6834 5.5788 7.86583 5.16167 6.83319 4.02618C6.71562 3.89741 6.51798 3.88025 6.37869 3.98844C5.50996 4.6703 4.72014 5.45074 4.03439 6.30636L4.03402 6.30681C3.92372 6.44412 3.93929 6.64402 4.06968 6.76307C5.26994 7.85033 5.65804 9.57948 5.03352 11.0694L5.03342 11.0697C4.42845 12.5108 2.95035 13.4037 1.30867 13.4037H1.30062L1.29258 13.4034C1.08585 13.3968 0.961263 13.5152 0.93847 13.6999C0.811294 14.7877 0.809876 15.8975 0.932556 16.9956L13.7677 0.97332ZM13.7677 0.97332C14.8536 0.852837 15.9461 0.856434 17.0294 0.981833L13.7677 0.97332ZM26.1768 10.9258C25.6546 9.64725 25.9916 8.15642 27.0156 7.21697L29.2827 12.9812C27.9082 12.9812 26.6884 12.1744 26.1768 10.9258ZM12.8595 29.4086C12.8334 29.8501 13.157 30.2349 13.5954 30.285L10.8297 26.1532C12.1245 26.695 12.939 28.0035 12.8595 29.4086ZM22.4124 20.173L22.8657 20.6263L23.195 20.0763C24.0163 18.7044 24.4892 17.0997 24.4892 15.3855C24.4892 10.3334 20.3936 6.23798 15.3415 6.23798C10.2894 6.23798 6.19389 10.3334 6.19389 15.3855C6.19389 20.4376 10.2893 24.533 15.3415 24.533C17.1541 24.533 18.8429 24.0033 20.2644 23.0937L20.7881 22.7586L20.3484 22.319L16.5207 18.4913L16.2823 18.2529L15.9719 18.3846C15.3874 18.6325 14.7531 18.7637 14.0971 18.7637C12.8136 18.7637 11.6093 18.2649 10.7017 17.3574C9.49007 16.1456 9.01486 14.3624 9.46244 12.7054C9.47118 12.6735 9.48804 12.6511 9.50443 12.6378C9.52063 12.6247 9.53301 12.6228 9.53894 12.6228C9.5429 12.6228 9.55049 12.6233 9.56092 12.6273C9.56999 12.6307 9.59174 12.6406 9.62253 12.6713L9.62323 12.672L9.97551 12.3172L9.62325 12.672L9.62331 12.6721L9.62355 12.6723L9.62453 12.6733L9.62839 12.6771L9.64354 12.6921L9.70164 12.7498L9.91397 12.9607L10.6025 13.6448C11.133 14.1721 11.7442 14.7801 12.0691 15.105L12.0693 15.1052C12.1303 15.1661 12.1939 15.2139 12.2576 15.2512L12.2519 15.4163L12.7353 15.373C12.7572 15.3724 12.7783 15.3709 12.7977 15.3686L12.8303 15.3648L12.8321 15.3644C13.5256 15.3016 14.4042 15.1765 14.7819 15.0552L14.9006 15.0171L14.9875 14.9278C14.9941 14.9211 14.9992 14.9158 15.0035 14.9113C15.0115 14.9031 15.017 14.8974 15.0242 14.8902L15.0338 14.881L15.0352 14.8797C15.041 14.8742 15.0514 14.8644 15.0625 14.8534L15.1501 14.7666L15.1873 14.6489C15.3051 14.2763 15.4291 13.4093 15.4923 12.7261L15.4959 12.7007C15.5079 12.6225 15.5096 12.5235 15.4972 12.4272C15.4871 12.3488 15.4541 12.1505 15.2987 11.9951L15.2987 11.9951C14.9867 11.6831 14.3636 11.0565 13.8179 10.5072L13.107 9.79137L12.8867 9.56946L12.8263 9.50862L12.8106 9.49275L12.8065 9.48869L12.8055 9.48767L12.8053 9.48742L12.8052 9.48735L12.4503 9.83952L12.8052 9.48733L12.804 9.48612C12.7792 9.46128 12.7702 9.44118 12.767 9.42999C12.764 9.41957 12.7633 9.40888 12.7671 9.39476C12.7744 9.367 12.8036 9.33781 12.8307 9.33043C13.2427 9.21826 13.6688 9.16136 14.0969 9.16136C15.3802 9.16136 16.5843 9.66008 17.4917 10.5675L17.4917 10.5676C18.3994 11.475 18.8982 12.679 18.8982 13.9625V13.9626C18.8983 14.6185 18.7671 15.2528 18.5191 15.8375L18.3875 16.1479L18.6259 16.3863L22.4124 20.173Z" stroke="white"/>
</g>
<defs>
<clipPath id="clip0">
<rect width="30" height="30" fill="white" transform="translate(0.341797 0.385376)"/>
</clipPath>
</defs>
</svg>
