<svg width="31" height="31" viewBox="0 0 31 31" fill="none" xmlns="http://www.w3.org/2000/svg">
<g clip-path="url(#clip0)">
<path d="M28.2417 17.1981L27.4648 14.0906C27.6772 14.0455 27.8366 13.857 27.8366 13.6313V13.1302C27.8366 12.0424 26.9515 11.1574 25.8637 11.1574H22.3251V10.124C22.3251 9.58867 21.8896 9.1532 21.3543 9.1532H14.7746L18.773 7.55382C19.0139 7.4575 19.1311 7.1841 19.0347 6.94322C18.9384 6.7024 18.6652 6.58515 18.4241 6.68154L15.1503 7.99105C16.1479 7.35097 17.1349 6.6465 17.5106 6.15384C18.2422 5.19472 18.0569 3.81929 17.0978 3.08775C16.1387 2.35615 14.7632 2.54148 14.0317 3.5006C13.4972 4.2015 12.792 6.17089 12.3355 7.55869C11.8791 6.17101 11.1738 4.2015 10.6394 3.5006C9.90787 2.54148 8.53238 2.35627 7.57326 3.08775C6.61414 3.81923 6.42893 5.19466 7.16041 6.15384C7.53617 6.64656 8.52312 7.35097 9.5208 7.99105L6.24693 6.68154C6.00594 6.58504 5.73266 6.70234 5.63633 6.94322C5.53994 7.1841 5.65713 7.4575 5.89801 7.55382L9.89645 9.1532H3.31672C2.78141 9.1532 2.34594 9.58867 2.34594 10.124V18.6418C2.34594 18.9011 2.55623 19.1115 2.81568 19.1115C3.07508 19.1115 3.28543 18.9012 3.28543 18.6418V10.124C3.28543 10.1067 3.29943 10.0927 3.31672 10.0927H21.3543C21.3716 10.0927 21.3856 10.1067 21.3856 10.124V18.6419C21.3856 18.9013 21.5959 19.1116 21.8553 19.1116C22.1147 19.1116 22.3251 18.9013 22.3251 18.6419V18.1094H27.866C27.8666 18.1094 27.867 18.1095 27.8675 18.1095C27.868 18.1095 27.8685 18.1094 27.869 18.1094C28.5508 18.11 29.1297 18.5575 29.3285 19.1741H27.8679C27.6085 19.1741 27.3981 19.3844 27.3981 19.6439V20.646C27.3981 21.4575 28.0583 22.1178 28.8699 22.1178H29.4023V24.1845H28.1741C27.7706 23.0196 26.6631 22.1803 25.3626 22.1803C24.0621 22.1803 22.9546 23.0195 22.5512 24.1845H22.325V20.6459C22.325 20.3865 22.1147 20.1761 21.8553 20.1761C21.5959 20.1761 21.3855 20.3864 21.3855 20.6459V24.1845H11.6397C11.2362 23.0195 10.1287 22.1803 8.82822 22.1803C7.52773 22.1803 6.4202 23.0195 6.01678 24.1845H3.31672C3.29943 24.1845 3.28543 24.1705 3.28543 24.1532V23.1198H5.32092C5.58031 23.1198 5.79066 22.9095 5.79066 22.65C5.79066 22.3906 5.58037 22.1803 5.32092 22.1803H0.811543C0.552148 22.1803 0.341797 22.3906 0.341797 22.65C0.341797 22.9095 0.55209 23.1198 0.811543 23.1198H2.346V24.1532C2.346 24.6885 2.78146 25.124 3.31678 25.124H5.85412C5.854 25.1344 5.8533 25.1448 5.8533 25.1553C5.8533 26.7956 7.18789 28.1302 8.82822 28.1302C10.4686 28.1302 11.8031 26.7956 11.8031 25.1553C11.8031 25.1447 11.8024 25.1344 11.8023 25.124H22.3885C22.3883 25.1344 22.3876 25.1448 22.3876 25.1553C22.3876 26.7956 23.7222 28.1302 25.3626 28.1302C27.0029 28.1302 28.3375 26.7956 28.3375 25.1553C28.3375 25.1447 28.3368 25.1344 28.3367 25.124H29.872C30.1314 25.124 30.3417 24.9137 30.3417 24.6542V19.6438C30.3418 18.4067 29.4291 17.3788 28.2417 17.1981ZM10.4727 7.47865C8.61975 6.32722 8.07014 5.79748 7.90742 5.58408C7.49006 5.03687 7.59576 4.25212 8.14303 3.83476C8.36861 3.66273 8.63451 3.57959 8.89848 3.57959C9.27477 3.57959 9.64707 3.74869 9.8924 4.07037C10.3468 4.66615 11.0584 6.6714 11.5282 8.11638C11.2112 7.9297 10.8467 7.71121 10.4727 7.47865ZM13.143 8.11632C13.6128 6.6714 14.3244 4.66621 14.7787 4.07031C15.1961 3.5231 15.9808 3.41746 16.528 3.83476C17.0753 4.25212 17.1809 5.03687 16.7636 5.58408C16.6009 5.79742 16.0513 6.32722 14.1985 7.47859C13.8245 7.71109 13.4601 7.92964 13.143 8.11632ZM22.3251 12.0968H25.8637C26.4335 12.0968 26.8971 12.5604 26.8971 13.1302V13.1615H22.3251V12.0968ZM22.3251 17.1699V14.101H26.499L27.2663 17.1699H22.3251ZM8.82822 27.1908C7.70586 27.1908 6.79273 26.2776 6.79273 25.1553C6.79273 24.0329 7.70586 23.1198 8.82822 23.1198C9.95059 23.1198 10.8637 24.0329 10.8637 25.1553C10.8637 26.2776 9.95059 27.1908 8.82822 27.1908ZM25.3627 27.1908C24.2403 27.1908 23.3272 26.2776 23.3272 25.1553C23.3272 24.0329 24.2403 23.1198 25.3627 23.1198C26.485 23.1198 27.3982 24.0329 27.3982 25.1553C27.3982 26.2776 26.485 27.1908 25.3627 27.1908ZM29.4024 21.1782H28.87C28.5764 21.1782 28.3376 20.9394 28.3376 20.6458V20.1135H29.4023V21.1782H29.4024Z" fill="white"/>
<path d="M8.8282 24.1846C8.29289 24.1846 7.85742 24.6201 7.85742 25.1554C7.85742 25.6907 8.29289 26.1262 8.8282 26.1262C9.36352 26.1262 9.79898 25.6907 9.79898 25.1554C9.79898 24.6201 9.36352 24.1846 8.8282 24.1846Z" fill="white"/>
<path d="M25.3629 24.1846C24.8276 24.1846 24.3921 24.6201 24.3921 25.1554C24.3921 25.6907 24.8276 26.1262 25.3629 26.1262C25.8982 26.1262 26.3337 25.6907 26.3337 25.1554C26.3337 24.6201 25.8982 24.1846 25.3629 24.1846Z" fill="white"/>
<path d="M19.851 22.1803H12.8364C12.5771 22.1803 12.3667 22.3906 12.3667 22.65C12.3667 22.9095 12.577 23.1198 12.8364 23.1198H19.851C20.1104 23.1198 20.3208 22.9095 20.3208 22.65C20.3208 22.3906 20.1105 22.1803 19.851 22.1803Z" fill="white"/>
<path d="M7.82603 20.1762H1.8135C1.5541 20.1762 1.34375 20.3865 1.34375 20.646C1.34375 20.9054 1.55404 21.1157 1.8135 21.1157H7.82603C8.08542 21.1157 8.29577 20.9054 8.29577 20.646C8.29577 20.3865 8.08542 20.1762 7.82603 20.1762Z" fill="white"/>
<path d="M7.826 13.1615H5.8218C5.5624 13.1615 5.35205 13.3718 5.35205 13.6312V17.6396C5.35205 17.899 5.56234 18.1093 5.8218 18.1093C6.08125 18.1093 6.29154 17.899 6.29154 17.6396V16.1051H7.32496C7.58436 16.1051 7.79471 15.8948 7.79471 15.6354C7.79471 15.3759 7.58441 15.1656 7.32496 15.1656H6.29154V14.101H7.826C8.08539 14.101 8.29574 13.8907 8.29574 13.6312C8.29568 13.3719 8.08539 13.1615 7.826 13.1615Z" fill="white"/>
<path d="M11.5226 16.3254C11.9927 16.0175 12.3041 15.4865 12.3041 14.8839C12.3041 13.9341 11.5315 13.1615 10.5817 13.1615H9.32912C9.06973 13.1615 8.85938 13.3718 8.85938 13.6312V17.6396C8.85938 17.899 9.06967 18.1093 9.32912 18.1093C9.58857 18.1093 9.79887 17.899 9.79887 17.6396V16.6062H10.5809L11.4435 17.9001C11.534 18.0359 11.6829 18.1093 11.8347 18.1093C11.9243 18.1093 12.0148 18.0838 12.0948 18.0304C12.3107 17.8865 12.369 17.5948 12.2251 17.379L11.5226 16.3254ZM10.5817 15.6667H9.79887V14.101H10.5817C11.0135 14.101 11.3646 14.4521 11.3646 14.8839C11.3646 15.3156 11.0135 15.6667 10.5817 15.6667Z" fill="white"/>
<path d="M15.3416 17.1699H13.8072V16.1036C13.8175 16.1043 13.8279 16.1052 13.8385 16.1052H14.8405C15.0999 16.1052 15.3103 15.8949 15.3103 15.6355C15.3103 15.376 15.1 15.1657 14.8405 15.1657H13.8385C13.8278 15.1657 13.8175 15.1666 13.8072 15.1673V14.101H15.3416C15.601 14.101 15.8114 13.8907 15.8114 13.6312C15.8114 13.3719 15.6011 13.1615 15.3416 13.1615H13.3374C13.078 13.1615 12.8677 13.3718 12.8677 13.6312V17.6396C12.8677 17.899 13.078 18.1093 13.3374 18.1093H15.3416C15.601 18.1093 15.8114 17.899 15.8114 17.6396C15.8114 17.3801 15.601 17.1699 15.3416 17.1699Z" fill="white"/>
<path d="M18.8489 17.1699H17.3145V16.1052H17.8469C18.1063 16.1052 18.3166 15.8949 18.3166 15.6355C18.3166 15.376 18.1063 15.1657 17.8469 15.1657H17.3145V14.101H18.8489C19.1083 14.101 19.3187 13.8907 19.3187 13.6312C19.3187 13.3719 19.1084 13.1615 18.8489 13.1615H16.8447C16.5854 13.1615 16.375 13.3718 16.375 13.6312V17.6396C16.375 17.899 16.5853 18.1093 16.8447 18.1093H18.8489C19.1083 18.1093 19.3187 17.899 19.3187 17.6396C19.3187 17.3801 19.1083 17.1699 18.8489 17.1699Z" fill="white"/>
</g>
<defs>
<clipPath id="clip0">
<rect width="30" height="30" fill="white" transform="translate(0.341797 0.385376)"/>
</clipPath>
</defs>
</svg>
