<svg width="31" height="31" viewBox="0 0 31 31" fill="none" xmlns="http://www.w3.org/2000/svg">
<g clip-path="url(#clip0)">
<path fill-rule="evenodd" clip-rule="evenodd" d="M19.1004 29.0215C17.3289 30.4843 14.7947 30.6628 12.1236 29.7663C9.54346 28.9002 6.81771 27.0208 4.55338 24.3319C4.53644 24.3141 4.52065 24.2953 4.50623 24.2758C2.24991 21.5773 0.872044 18.5661 0.467839 15.8756C0.0469251 13.0737 0.673604 10.5963 2.44767 9.1076L2.45957 9.09799C2.89948 8.74048 3.56369 8.82791 4.28444 9.2605C4.83422 9.59009 5.46181 10.1353 6.04065 10.8199C6.05713 10.8373 6.07224 10.8553 6.0862 10.8739C6.64811 11.5486 7.25373 12.4621 7.66434 13.2593C8.18596 14.2719 8.37777 15.1986 7.89574 15.603C7.34803 16.0626 7.03789 16.7063 6.97953 17.373C6.92116 18.0404 7.11525 18.7291 7.57554 19.2777L10.0102 22.179C10.4697 22.727 11.1134 23.0371 11.7801 23.0955C12.4475 23.1539 13.1362 22.9598 13.6849 22.4995C14.165 22.0964 15.0437 22.4468 15.9499 23.136C17.2121 24.0962 18.7214 25.6372 19.3041 27.1584C19.5978 27.9256 19.5758 28.5829 19.1725 28.9597C19.1499 28.9826 19.1258 29.0029 19.1004 29.0215ZM22.3139 25.2202C22.0267 25.366 21.9148 25.7224 22.0638 26.0163C22.213 26.3099 22.5666 26.4301 22.8539 26.2843C24.7481 25.3234 26.3885 23.9334 27.6471 22.242C29.3399 19.9671 30.3417 17.1494 30.3417 14.0993C30.3417 10.3287 28.8133 6.91469 26.342 4.44368C23.871 1.97244 20.457 0.44397 16.6864 0.44397C14.0634 0.44397 11.6107 1.186 9.52653 2.47186C8.05779 3.37823 6.76987 4.55835 5.73761 5.94171C5.29931 6.52811 6.24573 7.25069 6.69159 6.65376C7.63436 5.39056 8.81104 4.31322 10.1523 3.48535C12.0495 2.31508 14.2875 1.63965 16.6864 1.63965C20.1272 1.63965 23.242 3.03423 25.4968 5.28894C27.7515 7.54366 29.146 10.6587 29.146 14.0993C29.146 16.8864 28.2328 19.4583 26.6897 21.532C25.5416 23.0751 24.044 24.3434 22.3139 25.22V25.2202ZM20.4252 26.0261C20.7486 26.0261 21.0111 26.2884 21.0111 26.612C21.0111 26.9357 20.7486 27.198 20.4252 27.198C20.1016 27.198 19.8393 26.9357 19.8393 26.612C19.8393 26.2884 20.1016 26.0261 20.4252 26.0261ZM4.99512 7.67412C4.67148 7.67412 4.40918 7.93642 4.40918 8.26006C4.40918 8.58369 4.67148 8.84599 4.99512 8.84599C5.31853 8.84599 5.58106 8.58369 5.58106 8.26006C5.58106 7.93642 5.31853 7.67412 4.99512 7.67412ZM24.8618 17.3329C24.8618 17.663 24.5943 17.9308 24.264 17.9308C23.934 17.9308 23.6662 17.663 23.6662 17.3329V14.6971H20.5895V14.6946C20.4554 14.6948 20.3204 14.6495 20.2089 14.5571C19.9562 14.3469 19.9217 13.9716 20.132 13.7187L23.7714 9.35114C23.8792 9.19458 24.0596 9.09204 24.264 9.09204C24.5943 9.09204 24.8618 9.35983 24.8618 9.68988V13.5014H25.5869C25.917 13.5014 26.1848 13.7692 26.1848 14.0993C26.1848 14.4296 25.917 14.6971 25.5869 14.6971H24.8618V17.3329ZM23.6662 13.5017H21.8628L23.6662 11.3374V13.5017ZM15.014 12.0416C15.014 11.5573 15.2101 11.1188 15.5276 10.8013C15.8448 10.4841 16.2833 10.2877 16.7677 10.2877C17.2522 10.2877 17.6907 10.4841 18.008 10.8013C18.3254 11.1188 18.5216 11.5573 18.5216 12.0416C18.5216 12.5044 18.3447 12.8414 18.0492 13.122C17.6967 13.4566 17.1597 13.7443 16.5392 14.0537C15.0371 14.8031 13.8892 17.0532 13.886 17.0596C13.7352 17.3524 13.8501 17.7122 14.1428 17.863C14.2305 17.9081 14.3241 17.9296 14.4161 17.9294V17.9308H19.1194C19.4495 17.9308 19.7173 17.6632 19.7173 17.3329C19.7173 17.0027 19.4495 16.7351 19.1194 16.7351H15.4699C15.8629 16.153 16.4404 15.4382 17.0718 15.1233C17.7782 14.7711 18.3982 14.4348 18.8711 13.986C19.4005 13.4834 19.7173 12.8775 19.7173 12.0416C19.7173 11.2273 19.3872 10.4898 18.8532 9.95607C18.3195 9.42232 17.5823 9.09204 16.7677 9.09204C15.9533 9.09204 15.2161 9.42232 14.6823 9.95607C14.1483 10.4898 13.8183 11.2273 13.8183 12.0416C13.8183 12.3717 14.0859 12.6395 14.4161 12.6395C14.7462 12.6395 15.014 12.3717 15.014 12.0416ZM12.502 28.636C14.7961 29.4062 16.9315 29.2822 18.3641 28.0817L18.3669 28.0794C18.3724 28.0748 18.3037 27.8858 18.1879 27.5834C17.693 26.2911 16.2911 24.8908 15.2305 24.084C14.7578 23.7245 14.3401 23.5047 14.3065 23.5329C13.5047 24.2053 12.6466 24.3713 11.6773 24.2864C10.7069 24.2014 9.768 23.7476 9.09463 22.9451L6.66001 20.0438C5.98732 19.242 5.70374 18.2395 5.78866 17.2702C5.87357 16.3 6.25466 15.4236 7.05712 14.7502C6.73165 13.7413 5.38331 11.8931 5.14847 11.6134C4.64722 11.0163 4.12011 10.5516 3.67264 10.2834C3.40691 10.1241 3.23525 10.0257 3.21534 10.0229C3.20755 10.0293 3.19977 10.0357 3.19176 10.0417C1.77796 11.2451 1.29158 13.3167 1.64933 15.6983C2.02424 18.1938 3.31879 21.0042 5.44465 23.5375L5.44487 23.5377C7.5705 26.071 10.1115 27.8336 12.502 28.636Z" fill="white"/>
</g>
<defs>
<clipPath id="clip0">
<rect width="30" height="30" fill="white" transform="translate(0.341797 0.385376)"/>
</clipPath>
</defs>
</svg>
