<svg width="31" height="31" viewBox="0 0 31 31" fill="none" xmlns="http://www.w3.org/2000/svg">
<g clip-path="url(#clip0)">
<path d="M15.3318 30.3854C15.233 30.3854 15.133 30.3617 15.043 30.3142L0.678047 22.8142C0.471797 22.7067 0.341797 22.4929 0.341797 22.2604V8.19793C0.341797 7.98168 0.454297 7.78042 0.638047 7.66667C0.821797 7.55292 1.05305 7.54293 1.24555 7.63918L15.6105 14.8267C15.8218 14.9329 15.9555 15.1492 15.9555 15.3854V29.7604C15.9555 29.9792 15.8418 30.1817 15.6543 30.2954C15.5568 30.3554 15.4443 30.3854 15.3318 30.3854ZM1.5918 21.8817L14.7068 28.7292V15.7717L1.5918 9.20918V21.8817Z" fill="white"/>
<path d="M15.3516 30.3854C15.2391 30.3854 15.1266 30.3554 15.0278 30.2954C14.8416 30.1817 14.7266 29.9792 14.7266 29.7604V15.3854C14.7266 15.1492 14.8603 14.9329 15.0716 14.8267L29.4366 7.63916C29.6278 7.54166 29.8603 7.55166 30.0441 7.66666C30.2291 7.78041 30.3416 7.98166 30.3416 8.19791V22.2604C30.3416 22.4929 30.2116 22.7067 30.0053 22.8142L15.6403 30.3142C15.5503 30.3617 15.4503 30.3854 15.3516 30.3854ZM15.9766 15.7717V28.7292L29.0916 21.8817V9.20916L15.9766 15.7717ZM29.7166 22.2604H29.7291H29.7166Z" fill="white"/>
<path d="M0.966631 8.82292C0.736631 8.82292 0.516631 8.69667 0.406631 8.47792C0.251631 8.16917 0.377881 7.79417 0.686631 7.63917L15.0716 0.451672C15.2479 0.364172 15.4554 0.364172 15.6304 0.451672L29.9954 7.63917C30.3041 7.79417 30.4291 8.16917 30.2754 8.47792C30.1204 8.78667 29.7466 8.91042 29.4366 8.75792L15.3516 1.70917L1.24663 8.75667C1.15663 8.80167 1.06163 8.82292 0.966631 8.82292Z" fill="white"/>
<path d="M22.8419 19.1354C22.4969 19.1354 22.2169 18.8554 22.2169 18.5104V12.0216L8.19687 5.00661C7.88812 4.85286 7.76312 4.47661 7.91812 4.16786C8.07312 3.85911 8.44812 3.73536 8.75687 3.88786L23.1219 11.0754C23.3331 11.1829 23.4669 11.3991 23.4669 11.6354V18.5104C23.4669 18.8554 23.1869 19.1354 22.8419 19.1354Z" fill="white"/>
</g>
<defs>
<clipPath id="clip0">
<rect width="30" height="30" fill="white" transform="translate(0.341797 0.385376)"/>
</clipPath>
</defs>
</svg>
