<svg width="26" height="26" viewBox="0 0 26 26" fill="none" xmlns="http://www.w3.org/2000/svg">
<path d="M3 2.25H1V0.75H4.27003L5.30999 2.96268L5.44503 3.25H5.7625H24.25C24.6614 3.25 25 3.58864 25 4C25 4.13848 24.9667 4.26301 24.9159 4.35193L24.9158 4.3519L24.9122 4.3585L20.4372 12.471L20.4366 12.4721C20.0979 13.0897 19.4394 13.5 18.6875 13.5H9.375H9.07992L8.93729 13.7583L7.81229 15.7958L7.78075 15.8529L7.76493 15.9162L7.72743 16.0662L7.7125 16.1259V16.1875C7.7125 16.6386 8.07386 17 8.525 17H22.5V18.5H8C6.90114 18.5 6 17.5989 6 16.5C6 16.1482 6.09043 15.8214 6.24662 15.5481L6.24667 15.5481L6.25042 15.5413L7.93792 12.4788L8.06148 12.2546L7.95176 12.0232L3.45176 2.53573L3.31624 2.25H3ZM6.0125 22.75C6.0125 21.6479 6.9044 20.75 8 20.75C9.09886 20.75 10 21.6511 10 22.75C10 23.8489 9.09886 24.75 8 24.75C6.9044 24.75 6.0125 23.8521 6.0125 22.75ZM18.5125 22.75C18.5125 21.6479 19.4044 20.75 20.5 20.75C21.5989 20.75 22.5 21.6511 22.5 22.75C22.5 23.8489 21.5989 24.75 20.5 24.75C19.4044 24.75 18.5125 23.8521 18.5125 22.75Z" stroke="white"/>
</svg>
