<svg width="26" height="26" viewBox="0 0 26 26" fill="none" xmlns="http://www.w3.org/2000/svg">
<path d="M2.75 2.5H0.75V1H4.02003L5.05999 3.21268L5.19503 3.5H5.5125H24C24.4114 3.5 24.75 3.83864 24.75 4.25C24.75 4.38848 24.7167 4.51301 24.6659 4.60193L24.6658 4.6019L24.6622 4.6085L20.1872 12.721L20.1866 12.7221C19.8479 13.3397 19.1894 13.75 18.4375 13.75H9.125H8.82992L8.68729 14.0083L7.56229 16.0458L7.53075 16.1029L7.51493 16.1662L7.47743 16.3162L7.4625 16.3759V16.4375C7.4625 16.8886 7.82386 17.25 8.275 17.25H22.25V18.75H7.75C6.65114 18.75 5.75 17.8489 5.75 16.75C5.75 16.3982 5.84043 16.0714 5.99662 15.7981L5.99667 15.7981L6.00042 15.7913L7.68792 12.7288L7.81148 12.5046L7.70176 12.2732L3.20176 2.78573L3.06624 2.5H2.75ZM5.7625 23C5.7625 21.8979 6.6544 21 7.75 21C8.84886 21 9.75 21.9011 9.75 23C9.75 24.0989 8.84886 25 7.75 25C6.6544 25 5.7625 24.1021 5.7625 23ZM18.2625 23C18.2625 21.8979 19.1544 21 20.25 21C21.3489 21 22.25 21.9011 22.25 23C22.25 24.0989 21.3489 25 20.25 25C19.1544 25 18.2625 24.1021 18.2625 23Z" stroke="black"/>
</svg>
