<svg width="40" height="41" viewBox="0 0 40 41" fill="none" xmlns="http://www.w3.org/2000/svg">
<g clip-path="url(#clip0)">
<path d="M19.9867 40.0123C19.855 40.0123 19.7217 39.9806 19.6017 39.9173L0.448333 29.9173C0.173333 29.7739 0 29.4889 0 29.1789V10.4289C0 10.1406 0.15 9.87227 0.395 9.72061C0.64 9.56894 0.948333 9.55561 1.205 9.68394L20.3583 19.2673C20.64 19.4089 20.8183 19.6973 20.8183 20.0123V39.1789C20.8183 39.4706 20.6667 39.7406 20.4167 39.8923C20.2867 39.9723 20.1367 40.0123 19.9867 40.0123ZM1.66667 28.6739L19.1533 37.8039V20.5273L1.66667 11.7773V28.6739Z" fill="white"/>
<path d="M20.0133 40.0123C19.8633 40.0123 19.7133 39.9723 19.5816 39.8923C19.3333 39.7406 19.1799 39.4706 19.1799 39.179V20.0123C19.1799 19.6973 19.3583 19.409 19.6399 19.2673L38.7933 9.68396C39.0483 9.55396 39.3583 9.56729 39.6033 9.72062C39.85 9.87229 40 10.1406 40 10.429V29.179C40 29.489 39.8266 29.774 39.5516 29.9173L20.3983 39.9173C20.2783 39.9806 20.1449 40.0123 20.0133 40.0123ZM20.8466 20.5273V37.804L38.3333 28.674V11.7773L20.8466 20.5273ZM39.1666 29.179H39.1833H39.1666Z" fill="white"/>
<path d="M0.833845 11.2621C0.527178 11.2621 0.233845 11.0938 0.0871782 10.8021C-0.119489 10.3904 0.0488448 9.89044 0.460512 9.68377L19.6405 0.100439C19.8755 -0.0162272 20.1522 -0.0162272 20.3855 0.100439L39.5388 9.68377C39.9505 9.89044 40.1172 10.3904 39.9122 10.8021C39.7055 11.2138 39.2072 11.3788 38.7938 11.1754L20.0138 1.77711L1.20718 11.1738C1.08718 11.2338 0.960512 11.2621 0.833845 11.2621Z" fill="white"/>
<path d="M30 25.0122C29.54 25.0122 29.1667 24.6388 29.1667 24.1788V15.5272L10.4733 6.17382C10.0617 5.96882 9.89501 5.46715 10.1017 5.05548C10.3083 4.64382 10.8083 4.47882 11.22 4.68215L30.3734 14.2655C30.655 14.4088 30.8333 14.6972 30.8333 15.0122V24.1788C30.8333 24.6388 30.46 25.0122 30 25.0122Z" fill="white"/>
</g>
<defs>
<clipPath id="clip0">
<rect width="40" height="40" fill="white" transform="translate(0 0.012207)"/>
</clipPath>
</defs>
</svg>
