<svg width="40" height="41" viewBox="0 0 40 41" fill="none" xmlns="http://www.w3.org/2000/svg">
<g clip-path="url(#clip0)">
<path fill-rule="evenodd" clip-rule="evenodd" d="M25.0116 38.1937C22.6496 40.144 19.2707 40.3821 15.7093 39.1867C12.269 38.0319 8.63467 35.5261 5.61557 31.9409C5.59298 31.9171 5.57193 31.8921 5.5527 31.8661C2.54428 28.2681 0.707118 24.2532 0.168178 20.6659C-0.39304 16.9299 0.442531 13.6267 2.80795 11.6418L2.82382 11.629C3.41037 11.1523 4.29599 11.2689 5.25698 11.8457C5.99002 12.2852 6.82681 13.0121 7.5986 13.9249C7.62057 13.9481 7.64071 13.9722 7.65933 13.9969C8.40853 14.8965 9.21603 16.1145 9.76351 17.1774C10.459 18.5275 10.7147 19.7632 10.072 20.3024C9.34176 20.9152 8.92825 21.7734 8.85043 22.6624C8.77261 23.5522 9.0314 24.4705 9.64511 25.202L12.8913 29.0704C13.5041 29.801 14.3622 30.2145 15.2512 30.2924C16.1411 30.3702 17.0594 30.1114 17.7909 29.4977C18.4311 28.9603 19.6027 29.4275 20.8109 30.3464C22.4939 31.6266 24.5063 33.6813 25.2832 35.7095C25.6748 36.7325 25.6455 37.6089 25.1078 38.1113C25.0775 38.1418 25.0455 38.1689 25.0116 38.1937ZM29.2963 33.1253C28.9133 33.3197 28.7641 33.7949 28.9627 34.1867C29.1617 34.5782 29.6332 34.7385 30.0162 34.5441C32.5418 33.2629 34.729 31.4096 36.4072 29.1544C38.6643 26.1212 40 22.3642 40 18.2974C40 13.27 37.9621 8.71796 34.6671 5.42328C31.3724 2.1283 26.8204 0.090332 21.7929 0.090332C18.2956 0.090332 15.0254 1.07971 12.2464 2.79419C10.2881 4.00269 8.57089 5.57617 7.19455 7.42065C6.61013 8.20251 7.87204 9.16595 8.46652 8.37006C9.72354 6.68579 11.2924 5.24933 13.0808 4.14551C15.6104 2.58514 18.5944 1.68457 21.7929 1.68457C26.3806 1.68457 30.5338 3.54401 33.5401 6.55029C36.5464 9.55658 38.4058 13.71 38.4058 18.2974C38.4058 22.0135 37.1881 25.4428 35.1306 28.2077C33.5999 30.2652 31.6031 31.9562 29.2963 33.125V33.1253ZM26.778 34.1998C27.2092 34.1998 27.5592 34.5496 27.5592 34.9811C27.5592 35.4126 27.2092 35.7623 26.778 35.7623C26.3465 35.7623 25.9967 35.4126 25.9967 34.9811C25.9967 34.5496 26.3465 34.1998 26.778 34.1998ZM6.20456 9.73053C5.77304 9.73053 5.42331 10.0803 5.42331 10.5118C5.42331 10.9433 5.77304 11.293 6.20456 11.293C6.63577 11.293 6.98581 10.9433 6.98581 10.5118C6.98581 10.0803 6.63577 9.73053 6.20456 9.73053ZM32.6935 22.6089C32.6935 23.049 32.3368 23.4061 31.8964 23.4061C31.4563 23.4061 31.0993 23.049 31.0993 22.6089V19.0945H26.9971V19.0912C26.8183 19.0915 26.6382 19.0311 26.4896 18.9078C26.1527 18.6276 26.1066 18.1271 26.3871 17.7899L31.2397 11.9666C31.3834 11.7578 31.6239 11.6211 31.8964 11.6211C32.3368 11.6211 32.6935 11.9781 32.6935 12.4182V17.5003H33.6603C34.1004 17.5003 34.4574 17.8574 34.4574 18.2974C34.4574 18.7378 34.1004 19.0945 33.6603 19.0945H32.6935V22.6089ZM31.0993 17.5006H28.6948L31.0993 14.6149V17.5006ZM19.563 15.5539C19.563 14.9081 19.8246 14.3234 20.2478 13.9001C20.6708 13.4772 21.2555 13.2153 21.9013 13.2153C22.5473 13.2153 23.132 13.4772 23.555 13.9001C23.9783 14.3234 24.2398 14.9081 24.2398 15.5539C24.2398 16.171 24.0039 16.6202 23.61 16.9943C23.14 17.4405 22.424 17.8241 21.5967 18.2367C19.5938 19.2358 18.0634 22.236 18.0591 22.2446C17.858 22.6349 18.0112 23.1146 18.4015 23.3157C18.5184 23.3759 18.6432 23.4045 18.7659 23.4042V23.4061H25.037C25.477 23.4061 25.8341 23.0493 25.8341 22.6089C25.8341 22.1686 25.477 21.8118 25.037 21.8118H20.1709C20.6949 21.0358 21.4649 20.0827 22.3069 19.6628C23.2486 19.1931 24.0753 18.7448 24.7058 18.1464C25.4117 17.4762 25.8341 16.6684 25.8341 15.5539C25.8341 14.4681 25.394 13.4848 24.682 12.7731C23.9704 12.0615 22.9874 11.6211 21.9013 11.6211C20.8155 11.6211 19.8325 12.0615 19.1208 12.7731C18.4088 13.4848 17.9688 14.4681 17.9688 15.5539C17.9688 15.994 18.3255 16.351 18.7659 16.351C19.206 16.351 19.563 15.994 19.563 15.5539ZM16.2137 37.6797C19.2725 38.7067 22.1198 38.5413 24.0299 36.9406L24.0335 36.9376C24.0409 36.9315 23.9493 36.6794 23.7949 36.2762C23.1351 34.5532 21.2659 32.6862 19.8517 31.6104C19.2215 31.131 18.6646 30.838 18.6197 30.8755C17.5507 31.7722 16.4066 31.9934 15.1142 31.8802C13.8202 31.767 12.5684 31.1618 11.6706 30.0919L8.4244 26.2234C7.52749 25.1544 7.14938 23.8177 7.2626 22.5253C7.37582 21.2317 7.88394 20.0632 8.95388 19.1653C8.51992 17.8201 6.72213 15.3558 6.40902 14.9829C5.74069 14.1867 5.03787 13.5672 4.44125 13.2095C4.08694 12.9971 3.85806 12.8659 3.83151 12.8622C3.82113 12.8708 3.81076 12.8793 3.80008 12.8873C1.915 14.4919 1.26651 17.254 1.7435 20.4294C2.24337 23.7567 3.96945 27.504 6.80392 30.8817L6.80423 30.882C9.63839 34.2596 13.0265 36.6098 16.2137 37.6797Z" fill="white"/>
</g>
<defs>
<clipPath id="clip0">
<rect width="40" height="40" fill="white" transform="translate(0 0.012207)"/>
</clipPath>
</defs>
</svg>
