<svg width="173" height="42" viewBox="0 0 173 42" fill="none" xmlns="http://www.w3.org/2000/svg">
<path d="M44.1644 1.66854C44.0009 1.4397 44.1317 1.24354 44.2298 1.08008L44.2951 1.04739V1.0147C44.524 0.949315 44.7855 0.982006 45.1124 1.08008C47.0086 1.832 47.7278 3.46661 47.499 5.33007C47.074 9.08967 45.8971 14.6473 44.6874 17.2954C43.674 19.5839 40.7644 19.9435 40.5028 18.6685C40.3394 17.9166 40.1432 17.0666 40.0125 16.1185C39.2605 12.2935 38.3778 7.52044 37.5279 5.62429C37.0702 4.70891 36.6452 5.00315 36.8413 4.44738C37.2663 3.30315 38.7702 2.257 39.5548 2.61661C40.4701 3.56469 41.4836 15.8896 42.1701 16.1512C42.9221 15.4973 43.0855 11.3781 44.099 5.72237C44.2298 5.10122 44.4586 2.257 44.2298 1.79931C44.1644 1.832 44.1317 1.70124 44.1644 1.66854Z" fill="#D8B564"/>
<path d="M57.6335 14.3204C55.9009 14.7127 53.8739 14.7781 53.0893 13.7973C52.9259 13.6339 52.8605 13.5031 52.8605 13.307L52.8932 13.2743V13.2416C52.9586 13.1762 53.0893 13.0127 53.2855 13.0454H53.4489C53.8739 13.1108 58.5489 12.3262 58.6797 11.7377C59.3008 11.607 59.7912 12.555 59.7912 13.3397C59.7912 13.3723 55.6393 19.8781 52.3701 19.8781C49.8528 19.8127 48.5451 18.2762 48.1201 16.1839C46.9759 10.2012 53.0239 -0.587221 58.647 1.66854L58.7778 1.70123C59.3662 1.21085 60.1835 0.949308 61.0335 1.43969C61.197 3.40122 60.3143 9.15505 58.3201 9.80889C58.0912 9.87428 57.8951 9.93966 57.6989 9.84159V9.80889L57.6335 9.7762C57.5682 9.64543 57.4701 9.48197 57.6009 9.31851C57.6009 9.28582 57.6335 9.18774 57.6662 9.15505C57.7316 8.9589 58.4182 5.65699 58.5162 4.12045L58.5816 3.40122C51.8797 6.18006 49.5586 17.5896 52.8605 17.7858C54.822 17.9166 56.3259 15.7916 57.6335 14.3204Z" fill="#D8B564"/>
<path d="M73.3257 1.3089L73.3584 1.37428C73.3911 1.50505 73.3911 1.63582 73.293 1.76659C73.293 1.79928 73.2604 1.83197 73.2277 1.89736C73.195 1.89736 73.0642 2.38774 72.9334 3.20505L72.7373 3.92427C72.0507 7.61849 70.9392 14.3204 71.2661 14.9415C71.7238 14.9415 73.9796 12.0646 74.7969 11.6723H74.8296C74.8623 11.6723 74.895 11.705 74.895 11.8031C74.9603 11.9666 75.0584 12.0646 74.9604 12.2281C74.895 12.4569 74.045 13.5031 73.8815 13.6012C72.5084 15.2358 70.3181 17.3608 69.4354 17.2627C69.0758 17.2627 68.8469 16.9031 68.7488 16.1838C68.7161 15.9223 68.7161 15.6608 68.7161 15.3012C68.7488 15.0396 68.8796 13.7319 69.0758 12.0319V11.8358C69.1084 11.4435 66.5585 12.0973 66.0027 13.2415C65.3162 14.7454 63.9758 18.505 64.4335 20.0415C64.5642 20.4338 64.9565 20.4665 64.9238 20.5319C64.7931 20.7607 64.0412 20.7607 63.8123 20.7281C61.6546 20.3031 61.1642 18.7011 61.5239 17.3608C62.0142 15.1704 67.245 3.10697 68.6508 2.1589L68.6834 2.09351C69.2719 1.63582 71.8219 1.21082 72.5738 1.17813H72.8027C73.0315 1.17813 73.2277 1.21082 73.3257 1.3089ZM69.2719 10.6262C69.5008 9.05695 69.9911 6.70311 70.1546 5.39542C69.2719 6.93195 67.8988 9.77618 67.0815 11.3127C67.9642 10.9531 68.8142 10.6589 69.2719 10.6262Z" fill="#D8B564"/>
<path d="M94.8569 1.3089L94.8896 1.37428C94.9223 1.50505 94.9223 1.63582 94.8242 1.76659C94.8242 1.79928 94.7915 1.83197 94.7588 1.89736C94.7261 1.89736 94.5954 2.38774 94.4646 3.20505L94.3011 3.92427C93.6146 7.61849 92.5031 14.3204 92.83 14.9415C93.2877 14.9415 95.5434 12.0646 96.3607 11.6723H96.3934C96.4261 11.6723 96.4588 11.705 96.4588 11.8031C96.5242 11.9666 96.6223 12.0646 96.5242 12.2281C96.4588 12.4569 95.6088 13.5031 95.4454 13.6012C94.0723 15.2358 91.8819 17.3608 90.9992 17.2627C90.6396 17.2627 90.4108 16.9031 90.3127 16.1838C90.28 15.9223 90.28 15.6608 90.28 15.3012C90.3127 15.0396 90.4434 13.7319 90.6396 12.0319V11.8358C90.6723 11.4435 88.1223 12.0973 87.5665 13.2415C86.88 14.7454 85.5396 18.505 85.9973 20.0415C86.1281 20.4338 86.5204 20.4665 86.4877 20.5319C86.3569 20.7607 85.605 20.7607 85.3762 20.7281C83.2185 20.3031 82.7281 18.7011 83.0877 17.3608C83.5781 15.1704 88.8088 3.10697 90.2146 2.1589L90.2473 2.09351C90.8358 1.63582 93.3857 1.21082 94.1377 1.17813H94.3665C94.5627 1.17813 94.7588 1.21082 94.8569 1.3089ZM90.8031 10.6262C91.0319 9.05695 91.5223 6.70311 91.6858 5.39542C90.8031 6.93195 89.43 9.77618 88.6127 11.3127C89.4954 10.9531 90.3454 10.6589 90.8031 10.6262Z" fill="#8B0029"/>
<path d="M97.0603 16.1512C97.1911 16.3146 97.093 16.4454 97.0276 16.5762H96.9949V16.6088C96.8315 16.6742 96.6353 16.6742 96.4719 16.6088C95.1969 16.2492 94.6738 15.2358 94.7392 13.9935C94.87 12.1954 95.0334 10.9204 95.7526 9.18772C96.1776 8.23965 97.6815 8.0435 98.3353 7.94542C98.4007 7.94542 98.6949 8.07619 98.7276 8.17426C98.8584 8.40311 98.5969 8.20695 98.5315 8.40311C98.1719 9.02426 97.8449 9.44926 97.6488 10.2012C98.7276 9.08964 100.885 7.42234 101.67 7.25888C102.128 7.09542 102.422 6.99734 102.749 7.03004C102.912 7.06273 103.108 7.06273 103.141 7.1935C103.272 7.42234 103.174 7.32426 103.076 7.48773C102.324 8.89349 100.689 14.0916 101.572 15.6281C101.605 15.6608 101.605 15.6935 101.605 15.7589C101.67 15.9223 101.637 16.0204 101.572 16.1512L101.539 16.1838V16.2165C101.376 16.2819 101.049 16.2492 100.853 16.2165C99.5776 15.8242 98.8584 14.9415 98.9238 13.6992C98.9892 12.2281 99.3488 10.8877 99.8065 9.35118C99.1526 9.7108 97.9103 11.0512 97.3219 11.6396C97.1584 12.5223 97.1584 12.7185 97.0603 13.405C97.0276 13.83 96.9296 15.7589 97.093 16.0204C97.0603 16.0531 97.093 16.0858 97.0603 16.1512Z" fill="#8B0029"/>
<path d="M110.922 4.31661C110.856 4.3493 109.026 4.67623 107.358 4.93777C106.345 8.30506 104.58 15.8896 104.743 16.1839C105.201 16.1839 109.581 11.705 110.53 10.855C110.726 11.1493 110.53 11.2474 110.497 11.3127C108.078 14.1243 104.71 18.3089 103.533 18.3089C103.174 18.3089 102.781 17.8185 102.683 17.0666C102.487 15.4646 104.155 8.40313 104.874 5.36276C102.978 5.65699 103.73 5.55892 102.16 5.98392C101.997 5.98392 102.226 4.97046 102.683 4.93777C103.272 4.807 103.926 4.67623 105.037 4.44738C105.201 3.69546 105.299 3.40123 105.397 3.27046C105.789 2.78008 106.868 2.22431 107.555 2.19162C107.783 2.19162 107.947 2.22431 108.045 2.35508V2.38777L108.078 2.42046C108.11 2.55123 108.11 2.68201 108.012 2.81277C108.012 2.84547 107.947 2.87816 107.881 2.94354C107.881 2.94354 107.751 3.20508 107.587 4.02238C109.385 3.72815 110.955 3.43392 111.314 3.56469V3.82623C111.347 3.82623 111.249 3.957 111.183 3.98969C111.085 4.08777 111.085 4.18584 110.922 4.31661Z" fill="#8B0029"/>
<path d="M114.06 11.3454C113.995 11.5416 113.112 12.5877 112.981 12.7185C111.608 14.3531 109.647 16.2493 108.764 16.1839C106.77 16.0204 109.385 8.82813 109.68 8.17429L109.712 8.10891C110.17 7.48776 111.739 6.76853 112.328 7.19352V7.22622L112.36 7.25891C112.393 7.38968 112.393 7.52044 112.295 7.65121C112.295 7.68391 112.262 7.7166 112.23 7.78199C112.099 7.84737 109.581 13.6993 110.039 14.4839C110.562 14.5493 112.916 12.0647 113.995 10.9531C114.06 11.0839 114.126 11.1493 114.06 11.3454ZM109.876 5.06853C113.145 3.04162 112.687 5.10123 111.805 6.08199C110.66 7.3243 110.856 5.23199 109.876 5.13392V5.06853Z" fill="#8B0029"/>
<path d="M117.428 21.3165C117.493 21.4473 117.428 21.5781 117.362 21.7088L117.297 21.7742C117.133 21.8069 116.937 21.8069 116.774 21.7742C115.924 21.5127 115.499 20.8915 115.368 20.205C115.172 19.5512 115.499 17.3935 115.891 14.9089C115.303 15.4973 114.878 15.8569 114.387 16.1512C114.028 16.3473 113.472 16.2166 112.981 15.9877C111.249 15.3012 112.851 8.89351 114.387 7.2589C114.878 6.73583 116.872 6.8339 117.558 7.84736C117.755 7.42236 117.787 7.45505 118.049 7.16082C118.506 6.53967 119.356 6.73583 119.781 7.03006C120.01 7.19352 120.076 7.38967 119.978 7.48775C119.226 8.23967 118.343 12.555 117.82 16.1185C117.428 18.7012 117.231 20.8915 117.395 21.1531C117.428 21.2185 117.428 21.2838 117.428 21.3165ZM116.806 10.3647C117.068 9.25313 117.493 8.5339 116.283 8.01082C115.63 7.78198 113.603 14.3204 114.453 14.9089C115.041 15.3012 116.055 13.9608 116.218 13.1762C116.381 12.2608 116.578 11.3127 116.806 10.3647Z" fill="#8B0029"/>
<path d="M121.612 16.0858C121.024 16.2819 120.599 15.955 120.141 15.6608C118.866 14.8435 120.304 8.69734 120.893 8.10888C121.481 7.5858 122.037 7.25888 122.887 7.38965C123.116 7.38965 123.606 7.84734 123.541 8.04349C122.691 8.04349 121.645 12.5223 121.743 14.1896C121.743 14.4185 122.201 14.6473 122.495 14.5492C124.326 13.7319 124.947 8.37041 125.568 7.68388C125.764 7.06273 127.202 7.22618 127.693 7.32426C127.758 7.32426 127.954 7.38965 127.954 7.48772C127.954 7.52041 127.889 7.55311 127.824 7.68388C127.693 8.14157 125.601 14.7781 125.927 15.4646C126.418 15.4646 128.412 12.4569 129.589 11.3454C129.818 11.3454 129.818 11.6069 129.785 11.705C128.314 13.6992 125.895 17.2954 124.783 17.5896C123.966 17.5242 123.737 14.7781 123.901 14.2223C123.345 14.8762 122.168 15.8569 121.612 16.0858Z" fill="#8B0029"/>
<path d="M136.552 10.7896C136.683 10.8223 136.912 11.0185 136.716 11.2473C135.147 13.0781 132.956 15.9223 131.126 16.1512C126.189 16.1185 129.622 7.48773 131.943 7.29158C133.349 7.16081 135.31 7.55312 135.049 9.08965C134.852 10.332 133.054 11.7704 131.158 12.2608C131.126 12.2608 131.093 12.2608 131.027 12.2935C130.962 12.0646 131.158 11.705 131.518 11.6069C132.662 11.3127 133.904 9.80888 133.806 8.50119C133.741 7.16081 131.289 10.332 130.799 12.0646C130.766 12.0646 130.766 12.0973 130.766 12.0973C130.504 12.9146 130.929 15.0396 131.289 15.0396C132.302 15.1704 136.062 11.3781 136.552 10.7896Z" fill="#8B0029"/>
<path d="M1.92407 37.7988V30.6406H2.89575L6.65552 36.2607V30.6406H7.56372V37.7988H6.59204L2.83228 32.1738V37.7988H1.92407ZM8.88696 38.2285L9.74146 38.3554C9.77726 38.6191 9.87655 38.8111 10.0393 38.9316C10.2574 39.0943 10.5553 39.1757 10.9329 39.1757C11.3398 39.1757 11.6539 39.0943 11.8752 38.9316C12.0966 38.7688 12.2463 38.541 12.3245 38.248C12.37 38.0689 12.3912 37.693 12.3879 37.1201C12.0038 37.5725 11.5253 37.7988 10.9524 37.7988C10.2395 37.7988 9.68774 37.5416 9.29712 37.0273C8.90649 36.513 8.71118 35.8961 8.71118 35.1767C8.71118 34.6819 8.8007 34.2262 8.97974 33.8095C9.15877 33.3896 9.41756 33.0657 9.7561 32.8378C10.0979 32.61 10.4983 32.496 10.9573 32.496C11.5693 32.496 12.0738 32.7434 12.4709 33.2382V32.6132H13.2815V37.0956C13.2815 37.9029 13.1985 38.4742 13.0325 38.8095C12.8697 39.1481 12.6093 39.415 12.2512 39.6103C11.8964 39.8056 11.4586 39.9033 10.9377 39.9033C10.3193 39.9033 9.81958 39.7633 9.43872 39.4833C9.05786 39.2066 8.87394 38.7884 8.88696 38.2285ZM9.6145 35.1132C9.6145 35.7936 9.74959 36.29 10.0198 36.6025C10.29 36.915 10.6285 37.0712 11.0354 37.0712C11.439 37.0712 11.7776 36.9166 12.051 36.6074C12.3245 36.2949 12.4612 35.8066 12.4612 35.1425C12.4612 34.5078 12.3196 34.0292 12.0364 33.707C11.7564 33.3847 11.4179 33.2236 11.0208 33.2236C10.6301 33.2236 10.2981 33.3831 10.0247 33.7021C9.75122 34.0178 9.6145 34.4882 9.6145 35.1132ZM19.4045 33.6337V32.6132H20.3469V33.4189C20.3469 33.93 20.2883 34.2864 20.1711 34.4882C19.8717 35.0091 19.4143 35.302 18.7991 35.3671V37.7988H18.0129V37.037C17.6093 37.623 17.0608 37.916 16.3674 37.916C16.0647 37.916 15.7799 37.859 15.5129 37.7451C15.2493 37.6279 15.0523 37.4798 14.9221 37.3007C14.7919 37.1217 14.7008 36.9036 14.6487 36.6464C14.6129 36.4706 14.595 36.1972 14.595 35.8261V32.6132H15.4739V35.4892C15.4739 35.9547 15.4918 36.2639 15.5276 36.4169C15.6415 36.9117 15.9801 37.1591 16.5432 37.1591C16.8134 37.1591 17.0624 37.0908 17.2903 36.954C17.5214 36.8173 17.6842 36.6334 17.7786 36.4023C17.873 36.1712 17.9202 35.8342 17.9202 35.3915V32.6132H18.7991V34.996C19.2125 34.9244 19.5217 34.7307 19.7268 34.415C19.818 34.2783 19.8635 34.0178 19.8635 33.6337H19.4045ZM21.8899 35.206C21.8899 35.8473 22.0347 36.3437 22.3245 36.6953C22.5979 37.0273 22.9625 37.1933 23.4182 37.1933C23.8739 37.1933 24.2369 37.0273 24.5071 36.6953C24.7968 36.3404 24.9417 35.8342 24.9417 35.1767C24.9417 34.555 24.7952 34.0699 24.5022 33.7216C24.2288 33.3896 23.8674 33.2236 23.4182 33.2236C22.9592 33.2236 22.5946 33.388 22.3245 33.7167C22.0347 34.0683 21.8899 34.5647 21.8899 35.206ZM25.9622 33.5068V32.4863H26.9045V33.2919C26.9045 33.6956 26.8427 34.0048 26.719 34.2197C26.5595 34.4996 26.2681 34.7568 25.845 34.9911C25.845 35.0367 25.845 35.0839 25.845 35.1328C25.845 36.3437 25.4543 37.1656 24.6731 37.5986C24.289 37.8102 23.8707 37.916 23.4182 37.916C22.676 37.916 22.0885 37.6832 21.6555 37.2177C21.2096 36.7359 20.9866 36.0654 20.9866 35.206C20.9866 34.2457 21.2535 33.5344 21.7874 33.0722C22.2333 32.6881 22.7769 32.496 23.4182 32.496C24.1311 32.496 24.7138 32.7288 25.1663 33.1943C25.5081 33.5491 25.7213 34.0064 25.8059 34.5663C26.0273 34.4296 26.1851 34.288 26.2795 34.1415C26.3772 33.9951 26.4244 33.7835 26.4211 33.5068H25.9622ZM22.8811 39.3857V38.3847H23.8821V39.3857H22.8811ZM31.26 35.8994L32.1243 36.0117C32.0299 36.6074 31.7874 37.0745 31.3967 37.413C31.0094 37.7483 30.5325 37.916 29.9661 37.916C29.2564 37.916 28.6851 37.6848 28.2522 37.2226C27.8225 36.7571 27.6077 36.0914 27.6077 35.2255C27.6077 34.6656 27.7004 34.1757 27.886 33.7558C28.0715 33.3359 28.3531 33.0217 28.7307 32.8134C29.1116 32.6018 29.525 32.496 29.9709 32.496C30.5341 32.496 30.9947 32.6393 31.3528 32.9257C31.7109 33.2089 31.9403 33.6126 32.0413 34.1367L31.1868 34.2685C31.1054 33.9202 30.9605 33.6581 30.7522 33.4824C30.5471 33.3066 30.2981 33.2187 30.0051 33.2187C29.5624 33.2187 29.2027 33.3782 28.926 33.6972C28.6493 34.013 28.511 34.5143 28.511 35.2011C28.511 35.8977 28.6444 36.4039 28.9114 36.7197C29.1783 37.0354 29.5266 37.1933 29.9563 37.1933C30.3014 37.1933 30.5894 37.0875 30.8206 36.8759C31.0517 36.6643 31.1982 36.3388 31.26 35.8994ZM39.0237 37.7988V37.1445C38.6949 37.6588 38.2115 37.916 37.5735 37.916C37.1601 37.916 36.7792 37.802 36.4309 37.5742C36.0859 37.3463 35.8173 37.0289 35.6252 36.622C35.4364 36.2119 35.342 35.7415 35.342 35.2109C35.342 34.6933 35.4283 34.2245 35.6008 33.8046C35.7734 33.3814 36.0321 33.0576 36.3772 32.8329C36.7222 32.6083 37.108 32.496 37.5344 32.496C37.8469 32.496 38.1252 32.5628 38.3694 32.6962C38.6135 32.8264 38.8121 32.9973 38.9651 33.2089V30.6406H39.8391V37.7988H39.0237ZM36.2454 35.2109C36.2454 35.8749 36.3853 36.3714 36.6653 36.7001C36.9452 37.0289 37.2756 37.1933 37.6565 37.1933C38.0406 37.1933 38.3661 37.037 38.6331 36.7245C38.9032 36.4088 39.0383 35.9286 39.0383 35.2841C39.0383 34.5745 38.9016 34.0536 38.6282 33.7216C38.3547 33.3896 38.0178 33.2236 37.6174 33.2236C37.2268 33.2236 36.8997 33.3831 36.636 33.7021C36.3756 34.0211 36.2454 34.524 36.2454 35.2109ZM40.8987 35.206C40.8987 34.2457 41.1656 33.5344 41.6995 33.0722C42.1454 32.6881 42.689 32.496 43.3303 32.496C44.0432 32.496 44.6259 32.7304 45.0784 33.1992C45.5308 33.6647 45.7571 34.3092 45.7571 35.1328C45.7571 35.8001 45.6562 36.3258 45.4543 36.7099C45.2558 37.0908 44.9644 37.387 44.5803 37.5986C44.1995 37.8102 43.7828 37.916 43.3303 37.916C42.6044 37.916 42.0168 37.6832 41.5676 37.2177C41.1217 36.7522 40.8987 36.0816 40.8987 35.206ZM41.802 35.206C41.802 35.8701 41.9469 36.3681 42.2366 36.7001C42.5263 37.0289 42.8909 37.1933 43.3303 37.1933C43.7665 37.1933 44.1295 37.0273 44.4192 36.6953C44.7089 36.3632 44.8538 35.857 44.8538 35.1767C44.8538 34.5354 44.7073 34.0504 44.4143 33.7216C44.1246 33.3896 43.7633 33.2236 43.3303 33.2236C42.8909 33.2236 42.5263 33.388 42.2366 33.7167C41.9469 34.0455 41.802 34.5419 41.802 35.206ZM43.9211 31.9687H43.2131L42.0852 30.6015H43.262L43.9211 31.9687ZM46.7922 37.7988V32.6132H47.5833V33.3505C47.9641 32.7809 48.5142 32.496 49.2336 32.496C49.5461 32.496 49.8326 32.553 50.093 32.6669C50.3567 32.7776 50.5536 32.9241 50.6838 33.1064C50.814 33.2887 50.9052 33.5051 50.9573 33.7558C50.9898 33.9186 51.0061 34.2034 51.0061 34.6103V37.7988H50.1272V34.6445C50.1272 34.2864 50.093 34.0195 50.0247 33.8437C49.9563 33.6647 49.8342 33.5231 49.6584 33.4189C49.4859 33.3115 49.2825 33.2578 49.0481 33.2578C48.6737 33.2578 48.3499 33.3766 48.0764 33.6142C47.8062 33.8518 47.6711 34.3027 47.6711 34.9667V37.7988H46.7922ZM52.1975 38.2285L53.052 38.3554C53.0878 38.6191 53.1871 38.8111 53.3499 38.9316C53.568 39.0943 53.8658 39.1757 54.2434 39.1757C54.6503 39.1757 54.9644 39.0943 55.1858 38.9316C55.4071 38.7688 55.5569 38.541 55.635 38.248C55.6806 38.0689 55.7017 37.693 55.6985 37.1201C55.3144 37.5725 54.8359 37.7988 54.2629 37.7988C53.55 37.7988 52.9983 37.5416 52.6077 37.0273C52.217 36.513 52.0217 35.8961 52.0217 35.1767C52.0217 34.6819 52.1112 34.2262 52.2903 33.8095C52.4693 33.3896 52.7281 33.0657 53.0667 32.8378C53.4084 32.61 53.8088 32.496 54.2678 32.496C54.8798 32.496 55.3844 32.7434 55.7815 33.2382V32.6132H56.592V37.0956C56.592 37.9029 56.509 38.4742 56.343 38.8095C56.1803 39.1481 55.9198 39.415 55.5618 39.6103C55.2069 39.8056 54.7691 39.9033 54.2483 39.9033C53.6298 39.9033 53.1301 39.7633 52.7493 39.4833C52.3684 39.2066 52.1845 38.7884 52.1975 38.2285ZM52.925 35.1132C52.925 35.7936 53.0601 36.29 53.3303 36.6025C53.6005 36.915 53.939 37.0712 54.3459 37.0712C54.7496 37.0712 55.0881 36.9166 55.3616 36.6074C55.635 36.2949 55.7717 35.8066 55.7717 35.1425C55.7717 34.5078 55.6301 34.0292 55.3469 33.707C55.067 33.3847 54.7284 33.2236 54.3313 33.2236C53.9407 33.2236 53.6086 33.3831 53.3352 33.7021C53.0618 34.0178 52.925 34.4882 52.925 35.1132ZM60.6887 37.7988V30.6406H61.5676V37.7988H60.6887ZM62.9397 31.6513V30.6406H63.8186V31.6513H62.9397ZM62.9397 37.7988V32.6132H63.8186V37.7988H62.9397ZM62.8811 39.3857V38.3847H63.8821V39.3857H62.8811ZM68.5452 35.8994L69.4094 36.0117C69.315 36.6074 69.0725 37.0745 68.6819 37.413C68.2945 37.7483 67.8176 37.916 67.2512 37.916C66.5416 37.916 65.9703 37.6848 65.5374 37.2226C65.1077 36.7571 64.8928 36.0914 64.8928 35.2255C64.8928 34.6656 64.9856 34.1757 65.1711 33.7558C65.3567 33.3359 65.6383 33.0217 66.0159 32.8134C66.3967 32.6018 66.8101 32.496 67.2561 32.496C67.8193 32.496 68.2799 32.6393 68.6379 32.9257C68.996 33.2089 69.2255 33.6126 69.3264 34.1367L68.4719 34.2685C68.3905 33.9202 68.2457 33.6581 68.0374 33.4824C67.8323 33.3066 67.5833 33.2187 67.2903 33.2187C66.8476 33.2187 66.4879 33.3782 66.2112 33.6972C65.9345 34.013 65.7961 34.5143 65.7961 35.2011C65.7961 35.8977 65.9296 36.4039 66.1965 36.7197C66.4635 37.0354 66.8118 37.1933 67.2415 37.1933C67.5865 37.1933 67.8746 37.0875 68.1057 36.8759C68.3368 36.6643 68.4833 36.3388 68.5452 35.8994ZM70.1614 37.7988V30.6406H71.0403V33.2089C71.4504 32.7337 71.968 32.496 72.593 32.496C72.9771 32.496 73.3108 32.5725 73.594 32.7255C73.8772 32.8753 74.079 33.0836 74.1995 33.3505C74.3232 33.6175 74.385 34.0048 74.385 34.5126V37.7988H73.5061V34.5126C73.5061 34.0732 73.4101 33.7542 73.218 33.5556C73.0292 33.3538 72.7607 33.2529 72.4124 33.2529C72.1519 33.2529 71.9062 33.3212 71.675 33.4579C71.4472 33.5914 71.2844 33.7737 71.1868 34.0048C71.0891 34.2359 71.0403 34.555 71.0403 34.9619V37.7988H70.1614ZM78.1594 36.2509L79.0286 36.1142C79.0774 36.4625 79.2125 36.7294 79.4338 36.915C79.6584 37.1005 79.9709 37.1933 80.3713 37.1933C80.775 37.1933 81.0745 37.1119 81.2698 36.9492C81.4651 36.7831 81.5627 36.5895 81.5627 36.3681C81.5627 36.1695 81.4765 36.0133 81.304 35.8994C81.1835 35.8212 80.884 35.7219 80.4055 35.6015C79.761 35.4387 79.3134 35.2988 79.0627 35.1816C78.8153 35.0611 78.6265 34.8967 78.4963 34.6884C78.3694 34.4768 78.3059 34.2441 78.3059 33.9902C78.3059 33.7591 78.358 33.5458 78.4622 33.3505C78.5696 33.152 78.7144 32.9876 78.8967 32.8574C79.0334 32.7564 79.219 32.6718 79.4534 32.6035C79.691 32.5318 79.9449 32.496 80.2151 32.496C80.622 32.496 80.9784 32.5546 81.2844 32.6718C81.5937 32.789 81.8215 32.9485 81.968 33.1503C82.1145 33.3489 82.2154 33.6158 82.2708 33.9511L81.4114 34.0683C81.3723 33.8014 81.2584 33.593 81.0696 33.4433C80.884 33.2936 80.6204 33.2187 80.2786 33.2187C79.8749 33.2187 79.5868 33.2854 79.4143 33.4189C79.2418 33.5523 79.1555 33.7086 79.1555 33.8876C79.1555 34.0016 79.1913 34.1041 79.2629 34.1953C79.3346 34.2897 79.4469 34.3678 79.5999 34.4296C79.6877 34.4622 79.9465 34.537 80.3762 34.6542C80.998 34.8203 81.4309 34.957 81.675 35.0644C81.9224 35.1686 82.1161 35.3216 82.2561 35.5234C82.3961 35.7252 82.4661 35.9759 82.4661 36.2753C82.4661 36.5683 82.3798 36.845 82.2073 37.1054C82.038 37.3626 81.7922 37.5628 81.47 37.706C81.1477 37.846 80.7831 37.916 80.3762 37.916C79.7024 37.916 79.1881 37.776 78.8333 37.496C78.4817 37.2161 78.2571 36.801 78.1594 36.2509ZM88.301 33.6337V32.6132H89.2434V33.4189C89.2434 33.93 89.1848 34.2864 89.0676 34.4882C88.7681 35.0091 88.3108 35.302 87.6956 35.3671V37.7988H86.9094V37.037C86.5058 37.623 85.9573 37.916 85.2639 37.916C84.9612 37.916 84.6764 37.859 84.4094 37.7451C84.1458 37.6279 83.9488 37.4798 83.8186 37.3007C83.6884 37.1217 83.5972 36.9036 83.5452 36.6464C83.5094 36.4706 83.4915 36.1972 83.4915 35.8261V32.6132H84.3704V35.4892C84.3704 35.9547 84.3883 36.2639 84.4241 36.4169C84.538 36.9117 84.8765 37.1591 85.4397 37.1591C85.7099 37.1591 85.9589 37.0908 86.1868 36.954C86.4179 36.8173 86.5806 36.6334 86.675 36.4023C86.7694 36.1712 86.8167 35.8342 86.8167 35.3915V32.6132H87.6956V34.996C88.109 34.9244 88.4182 34.7307 88.6233 34.415C88.7144 34.2783 88.76 34.0178 88.76 33.6337H88.301ZM85.3176 31.3828C85.5032 31.3632 85.622 31.3453 85.6741 31.329C85.8466 31.2704 85.9345 31.1793 85.9377 31.0556C85.941 30.9807 85.8954 30.9173 85.801 30.8652C85.6643 30.7903 85.4478 30.7529 85.1516 30.7529C85.0507 30.7529 84.8977 30.7594 84.6926 30.7724L84.6389 30.2744C84.7659 30.2483 85.0002 30.2369 85.342 30.2402C85.7424 30.2434 86.0696 30.3085 86.3235 30.4355C86.6034 30.5722 86.7467 30.7626 86.7532 31.0068C86.7662 31.4104 86.47 31.6497 85.8645 31.7245V31.9687H85.3176V31.3828ZM92.6516 35.6503V34.7665H95.3518V35.6503H92.6516ZM102.569 34.9911V34.1513L105.601 34.1464V36.8027C105.135 37.1738 104.655 37.4537 104.16 37.6425C103.666 37.8281 103.158 37.9208 102.637 37.9208C101.934 37.9208 101.294 37.7711 100.718 37.4716C100.145 37.1689 99.7122 36.7327 99.4192 36.163C99.1262 35.5934 98.9797 34.957 98.9797 34.2538C98.9797 33.5572 99.1246 32.9078 99.4143 32.3056C99.7073 31.7001 100.127 31.2509 100.674 30.9579C101.221 30.665 101.851 30.5185 102.564 30.5185C103.081 30.5185 103.548 30.6031 103.965 30.7724C104.385 30.9384 104.714 31.1712 104.951 31.4706C105.189 31.7701 105.37 32.1607 105.493 32.6425L104.639 32.8769C104.531 32.5123 104.398 32.2259 104.239 32.0175C104.079 31.8092 103.851 31.6432 103.555 31.5195C103.259 31.3925 102.93 31.329 102.569 31.329C102.136 31.329 101.761 31.3958 101.446 31.5292C101.13 31.6594 100.874 31.832 100.679 32.0468C100.487 32.2617 100.337 32.4977 100.23 32.7548C100.047 33.1975 99.9563 33.6777 99.9563 34.1953C99.9563 34.8333 100.065 35.3671 100.283 35.7968C100.505 36.2265 100.825 36.5455 101.245 36.7538C101.665 36.9622 102.111 37.0663 102.583 37.0663C102.993 37.0663 103.394 36.9882 103.784 36.832C104.175 36.6725 104.471 36.5032 104.673 36.3242V34.9911H102.569ZM110.274 37.1591C109.948 37.4358 109.634 37.6311 109.331 37.7451C109.032 37.859 108.71 37.916 108.365 37.916C107.795 37.916 107.357 37.7776 107.051 37.5009C106.745 37.221 106.592 36.8645 106.592 36.4316C106.592 36.1777 106.649 35.9466 106.763 35.7382C106.88 35.5266 107.031 35.3574 107.217 35.2304C107.406 35.1035 107.617 35.0074 107.852 34.9423C108.024 34.8967 108.285 34.8528 108.633 34.8105C109.343 34.7259 109.865 34.6249 110.2 34.5078C110.204 34.3873 110.205 34.3108 110.205 34.2783C110.205 33.9202 110.122 33.6679 109.956 33.5214C109.732 33.3229 109.398 33.2236 108.955 33.2236C108.542 33.2236 108.236 33.2968 108.037 33.4433C107.842 33.5865 107.697 33.8421 107.603 34.2099L106.743 34.0927C106.822 33.7249 106.95 33.4286 107.129 33.204C107.308 32.9762 107.567 32.802 107.906 32.6816C108.244 32.5579 108.636 32.496 109.082 32.496C109.525 32.496 109.885 32.5481 110.161 32.6523C110.438 32.7564 110.642 32.8883 110.772 33.0478C110.902 33.204 110.993 33.4026 111.045 33.6435C111.074 33.7932 111.089 34.0634 111.089 34.454V35.6259C111.089 36.443 111.107 36.9606 111.143 37.1786C111.182 37.3935 111.257 37.6002 111.367 37.7988H110.449C110.358 37.6165 110.3 37.4033 110.274 37.1591ZM110.2 35.1962C109.881 35.3264 109.403 35.4371 108.765 35.5283C108.404 35.5803 108.148 35.6389 107.998 35.704C107.849 35.7691 107.733 35.8652 107.652 35.9921C107.57 36.1158 107.53 36.2542 107.53 36.4072C107.53 36.6415 107.617 36.8369 107.793 36.9931C107.972 37.1494 108.233 37.2275 108.574 37.2275C108.913 37.2275 109.214 37.1542 109.478 37.0078C109.741 36.858 109.935 36.6546 110.059 36.3974C110.153 36.1988 110.2 35.9059 110.2 35.5185V35.1962ZM109.937 30.6503H110.537C110.489 31.0572 110.339 31.3697 110.088 31.5878C109.841 31.8059 109.51 31.915 109.097 31.915C108.68 31.915 108.347 31.8076 108.096 31.5927C107.849 31.3746 107.7 31.0605 107.652 30.6503H108.252C108.298 30.8717 108.387 31.0377 108.521 31.1484C108.657 31.2558 108.84 31.3095 109.068 31.3095C109.331 31.3095 109.53 31.2574 109.663 31.1533C109.8 31.0458 109.891 30.8782 109.937 30.6503ZM109.136 28.8779H110.313L109.185 30.2451H108.477L109.136 28.8779ZM112.456 37.7988V32.6132H113.247V33.3505C113.628 32.7809 114.178 32.496 114.898 32.496C115.21 32.496 115.497 32.553 115.757 32.6669C116.021 32.7776 116.218 32.9241 116.348 33.1064C116.478 33.2887 116.569 33.5051 116.621 33.7558C116.654 33.9186 116.67 34.2034 116.67 34.6103V37.7988H115.791V34.6445C115.791 34.2864 115.757 34.0195 115.689 33.8437C115.62 33.6647 115.498 33.5231 115.323 33.4189C115.15 33.3115 114.947 33.2578 114.712 33.2578C114.338 33.2578 114.014 33.3766 113.74 33.6142C113.47 33.8518 113.335 34.3027 113.335 34.9667V37.7988H112.456ZM120.811 37.7988V30.6406H121.69V34.7226L123.77 32.6132H124.907L122.925 34.537L125.108 37.7988H124.024L122.31 35.1474L121.69 35.7431V37.7988H120.811ZM129.356 36.1288L130.264 36.2411C130.121 36.7717 129.855 37.1835 129.468 37.4765C129.081 37.7695 128.586 37.916 127.984 37.916C127.225 37.916 126.623 37.6832 126.177 37.2177C125.734 36.749 125.513 36.093 125.513 35.2499C125.513 34.3775 125.738 33.7005 126.187 33.2187C126.636 32.7369 127.219 32.496 127.935 32.496C128.628 32.496 129.195 32.732 129.634 33.204C130.073 33.676 130.293 34.3401 130.293 35.1962C130.293 35.2483 130.292 35.3264 130.288 35.4306H126.421C126.454 36.0003 126.615 36.4365 126.905 36.7392C127.194 37.0419 127.556 37.1933 127.989 37.1933C128.311 37.1933 128.586 37.1087 128.814 36.9394C129.042 36.7701 129.222 36.4999 129.356 36.1288ZM126.47 34.7079H129.365C129.326 34.2717 129.216 33.9446 129.033 33.7265C128.753 33.388 128.391 33.2187 127.945 33.2187C127.541 33.2187 127.201 33.3538 126.924 33.624C126.651 33.8941 126.499 34.2555 126.47 34.7079ZM127.915 31.1386L127.364 31.9687H126.358L127.412 30.6015H128.35L129.448 31.9687H128.452L127.915 31.1386ZM128.072 28.8779H129.248L128.12 30.2451H127.412L128.072 28.8779ZM133.291 37.0126L133.418 37.789C133.171 37.8411 132.949 37.8671 132.754 37.8671C132.435 37.8671 132.188 37.8167 132.012 37.7158C131.836 37.6148 131.712 37.483 131.641 37.3203C131.569 37.1542 131.533 36.8076 131.533 36.2802V33.2968H130.889V32.6132H131.533V31.329L132.407 30.8017V32.6132H133.291V33.2968H132.407V36.329C132.407 36.5797 132.422 36.7408 132.451 36.8124C132.484 36.8841 132.534 36.941 132.603 36.9833C132.674 37.0257 132.775 37.0468 132.906 37.0468C133.003 37.0468 133.132 37.0354 133.291 37.0126ZM140.244 31.8466H138.555V31.2021H140.244V30.6406H141.118V31.2021H141.826V31.8466H141.118V37.7988H140.303V37.1445C139.974 37.6588 139.491 37.916 138.853 37.916C138.439 37.916 138.059 37.802 137.71 37.5742C137.365 37.3463 137.097 37.0289 136.905 36.622C136.716 36.2119 136.621 35.7415 136.621 35.2109C136.621 34.6933 136.708 34.2245 136.88 33.8046C137.053 33.3814 137.311 33.0576 137.656 32.8329C138.002 32.6083 138.387 32.496 138.814 32.496C139.126 32.496 139.405 32.5628 139.649 32.6962C139.893 32.8264 140.091 32.9973 140.244 33.2089V31.8466ZM137.525 35.2109C137.525 35.8749 137.665 36.3714 137.945 36.7001C138.225 37.0289 138.555 37.1933 138.936 37.1933C139.32 37.1933 139.645 37.037 139.912 36.7245C140.183 36.4088 140.318 35.9286 140.318 35.2841C140.318 34.5745 140.181 34.0536 139.907 33.7216C139.634 33.3896 139.297 33.2236 138.897 33.2236C138.506 33.2236 138.179 33.3831 137.915 33.7021C137.655 34.0211 137.525 34.524 137.525 35.2109ZM145.889 37.1591C145.563 37.4358 145.249 37.6311 144.947 37.7451C144.647 37.859 144.325 37.916 143.98 37.916C143.41 37.916 142.972 37.7776 142.666 37.5009C142.36 37.221 142.207 36.8645 142.207 36.4316C142.207 36.1777 142.264 35.9466 142.378 35.7382C142.495 35.5266 142.647 35.3574 142.832 35.2304C143.021 35.1035 143.233 35.0074 143.467 34.9423C143.64 34.8967 143.9 34.8528 144.248 34.8105C144.958 34.7259 145.48 34.6249 145.816 34.5078C145.819 34.3873 145.821 34.3108 145.821 34.2783C145.821 33.9202 145.738 33.6679 145.572 33.5214C145.347 33.3229 145.013 33.2236 144.571 33.2236C144.157 33.2236 143.851 33.2968 143.653 33.4433C143.457 33.5865 143.312 33.8421 143.218 34.2099L142.359 34.0927C142.437 33.7249 142.565 33.4286 142.744 33.204C142.923 32.9762 143.182 32.802 143.521 32.6816C143.859 32.5579 144.252 32.496 144.698 32.496C145.14 32.496 145.5 32.5481 145.777 32.6523C146.053 32.7564 146.257 32.8883 146.387 33.0478C146.517 33.204 146.608 33.4026 146.66 33.6435C146.69 33.7932 146.704 34.0634 146.704 34.454V35.6259C146.704 36.443 146.722 36.9606 146.758 37.1786C146.797 37.3935 146.872 37.6002 146.983 37.7988H146.065C145.974 37.6165 145.915 37.4033 145.889 37.1591ZM145.816 35.1962C145.497 35.3264 145.018 35.4371 144.38 35.5283C144.019 35.5803 143.763 35.6389 143.614 35.704C143.464 35.7691 143.348 35.8652 143.267 35.9921C143.185 36.1158 143.145 36.2542 143.145 36.4072C143.145 36.6415 143.233 36.8369 143.408 36.9931C143.587 37.1494 143.848 37.2275 144.19 37.2275C144.528 37.2275 144.829 37.1542 145.093 37.0078C145.357 36.858 145.55 36.6546 145.674 36.3974C145.768 36.1988 145.816 35.9059 145.816 35.5185V35.1962ZM148.072 37.7988V32.6132H148.858V33.3408C149.02 33.0869 149.237 32.8834 149.507 32.7304C149.777 32.5742 150.085 32.496 150.43 32.496C150.814 32.496 151.128 32.5758 151.372 32.7353C151.62 32.8948 151.794 33.1178 151.895 33.4042C152.305 32.7988 152.839 32.496 153.496 32.496C154.011 32.496 154.406 32.6393 154.683 32.9257C154.96 33.2089 155.098 33.6467 155.098 34.2392V37.7988H154.224V34.5322C154.224 34.1806 154.195 33.9283 154.136 33.7753C154.081 33.6191 153.978 33.4938 153.828 33.3994C153.679 33.305 153.503 33.2578 153.301 33.2578C152.936 33.2578 152.634 33.3798 152.393 33.624C152.152 33.8648 152.031 34.2522 152.031 34.7861V37.7988H151.153V34.4296C151.153 34.039 151.081 33.746 150.938 33.5507C150.795 33.3554 150.56 33.2578 150.235 33.2578C149.987 33.2578 149.758 33.3229 149.546 33.4531C149.338 33.5833 149.186 33.7737 149.092 34.0244C148.998 34.275 148.95 34.6363 148.95 35.1083V37.7988H148.072ZM159.185 37.7988V32.6132H159.971V33.3408C160.134 33.0869 160.35 32.8834 160.62 32.7304C160.891 32.5742 161.198 32.496 161.543 32.496C161.927 32.496 162.241 32.5758 162.486 32.7353C162.733 32.8948 162.907 33.1178 163.008 33.4042C163.418 32.7988 163.952 32.496 164.61 32.496C165.124 32.496 165.519 32.6393 165.796 32.9257C166.073 33.2089 166.211 33.6467 166.211 34.2392V37.7988H165.337V34.5322C165.337 34.1806 165.308 33.9283 165.249 33.7753C165.194 33.6191 165.091 33.4938 164.942 33.3994C164.792 33.305 164.616 33.2578 164.414 33.2578C164.05 33.2578 163.747 33.3798 163.506 33.624C163.265 33.8648 163.145 34.2522 163.145 34.7861V37.7988H162.266V34.4296C162.266 34.039 162.194 33.746 162.051 33.5507C161.908 33.3554 161.673 33.2578 161.348 33.2578C161.101 33.2578 160.871 33.3229 160.659 33.4531C160.451 33.5833 160.3 33.7737 160.205 34.0244C160.111 34.275 160.064 34.6363 160.064 35.1083V37.7988H159.185ZM171.065 36.1288L171.973 36.2411C171.83 36.7717 171.564 37.1835 171.177 37.4765C170.79 37.7695 170.295 37.916 169.693 37.916C168.934 37.916 168.332 37.6832 167.886 37.2177C167.443 36.749 167.222 36.093 167.222 35.2499C167.222 34.3775 167.447 33.7005 167.896 33.2187C168.345 32.7369 168.928 32.496 169.644 32.496C170.337 32.496 170.904 32.732 171.343 33.204C171.782 33.676 172.002 34.3401 172.002 35.1962C172.002 35.2483 172.001 35.3264 171.997 35.4306H168.13C168.163 36.0003 168.324 36.4365 168.614 36.7392C168.903 37.0419 169.265 37.1933 169.698 37.1933C170.02 37.1933 170.295 37.1087 170.523 36.9394C170.751 36.7701 170.931 36.4999 171.065 36.1288ZM168.179 34.7079H171.074C171.035 34.2717 170.925 33.9446 170.742 33.7265C170.462 33.388 170.1 33.2187 169.654 33.2187C169.25 33.2187 168.91 33.3538 168.633 33.624C168.36 33.8941 168.208 34.2555 168.179 34.7079ZM169.624 31.1386L169.073 31.9687H168.067L169.121 30.6015H170.059L171.157 31.9687H170.161L169.624 31.1386Z" fill="black"/>
</svg>
