<svg width="17" height="29" viewBox="0 0 17 29" fill="none" xmlns="http://www.w3.org/2000/svg">
<path d="M14 22.5H14.5V22V4.5V4H14H2.75H2.25V4.5V22V22.5H2.75H14ZM3.375 1.25H13.375C14.8239 1.25 16 2.42614 16 3.875V25.125C16 26.5739 14.8239 27.75 13.375 27.75H3.375C1.92614 27.75 0.75 26.5739 0.75 25.125V3.875C0.75 2.42614 1.92614 1.25 3.375 1.25ZM6 25.125C6 26.4386 7.06136 27.5 8.375 27.5C9.68864 27.5 10.75 26.4386 10.75 25.125C10.75 23.8114 9.68864 22.75 8.375 22.75C7.06136 22.75 6 23.8114 6 25.125Z" stroke="black"/>
</svg>
