<svg width="138" height="25" viewBox="0 0 138 25" fill="none" xmlns="http://www.w3.org/2000/svg">
<path d="M4.516 20.0867C3.684 20.0867 2.924 19.8467 2.236 19.3667C1.564 18.9027 1.028 18.2307 0.628 17.3507C0.228 16.4547 0.028 15.3827 0.028 14.1347C0.028 12.9027 0.22 11.6547 0.604 10.3907C0.988 9.12666 1.508 7.91866 2.164 6.76666C2.836 5.61466 3.596 4.59066 4.444 3.69466C5.292 2.78266 6.18 2.06266 7.108 1.53466C8.052 1.00666 8.98 0.742656 9.892 0.742656C10.804 0.742656 11.444 1.02266 11.812 1.58266C12.196 2.12666 12.388 2.75066 12.388 3.45466C12.388 4.01466 12.292 4.56666 12.1 5.11066C11.908 5.63866 11.652 6.07866 11.332 6.43066C11.012 6.78266 10.66 6.95866 10.276 6.95866C10.148 6.95866 10.012 6.91866 9.868 6.83866C9.74 6.75866 9.628 6.61466 9.532 6.40666C9.756 6.24666 10.012 5.95866 10.3 5.54266C10.604 5.12666 10.86 4.66266 11.068 4.15066C11.292 3.63866 11.404 3.16666 11.404 2.73466C11.404 2.36666 11.292 2.06266 11.068 1.82266C10.86 1.58266 10.492 1.46266 9.964 1.46266C9.276 1.46266 8.556 1.74266 7.804 2.30266C7.068 2.86266 6.348 3.61466 5.644 4.55866C4.956 5.48666 4.332 6.52666 3.772 7.67866C3.212 8.83066 2.764 10.0067 2.428 11.2067C2.108 12.4067 1.948 13.5427 1.948 14.6147C1.948 16.0707 2.252 17.2067 2.86 18.0227C3.468 18.8547 4.236 19.2707 5.164 19.2707C5.788 19.2707 6.38 19.0387 6.94 18.5747C7.5 18.1267 7.996 17.5427 8.428 16.8227C8.86 16.0867 9.204 15.2947 9.46 14.4467C9.732 13.5987 9.9 12.7827 9.964 11.9987C9.372 11.8707 8.892 11.7907 8.524 11.7587C8.156 11.7107 7.812 11.6867 7.492 11.6867C7.284 11.6867 7.06 11.6947 6.82 11.7107C6.596 11.7107 6.332 11.7107 6.028 11.7107C6.14 11.2467 6.332 10.9267 6.604 10.7507C6.892 10.5587 7.244 10.4627 7.66 10.4627C8.108 10.4627 8.572 10.5427 9.052 10.7027C9.548 10.8467 10.028 11.0067 10.492 11.1827C10.956 11.3587 11.364 11.4947 11.716 11.5907L11.548 12.3587C11.148 13.4147 10.836 14.3107 10.612 15.0467C10.404 15.7667 10.26 16.3827 10.18 16.8947C10.116 17.3907 10.084 17.8307 10.084 18.2147C10.084 18.5347 10.092 18.8467 10.108 19.1507C10.14 19.4547 10.164 19.7667 10.18 20.0867C9.78 19.9267 9.46 19.7027 9.22 19.4147C8.996 19.1427 8.884 18.7907 8.884 18.3587C8.884 18.0067 8.94 17.6387 9.052 17.2547C8.476 18.0547 7.812 18.7267 7.06 19.2707C6.308 19.8147 5.46 20.0867 4.516 20.0867ZM13.9411 19.1267C13.4451 19.1267 13.0291 18.9587 12.6931 18.6227C12.3411 18.3027 12.1651 17.8067 12.1651 17.1347C12.1651 16.5587 12.2931 15.9427 12.5491 15.2867C12.8051 14.6147 13.1571 13.9587 13.6051 13.3187C14.0531 12.6627 14.5571 12.0707 15.1171 11.5427C15.6931 10.9987 16.2931 10.5667 16.9171 10.2467C17.5571 9.92666 18.1891 9.76666 18.8131 9.76666C19.4371 9.76666 19.9571 9.93466 20.3731 10.2707C20.7891 10.5907 20.9971 11.0227 20.9971 11.5667C20.9971 11.9667 20.8851 12.2387 20.6611 12.3827C20.4531 12.5267 20.1731 12.5987 19.8211 12.5987C19.9011 12.3107 19.9411 12.0307 19.9411 11.7587C19.9411 11.3907 19.8531 11.0787 19.6771 10.8227C19.5011 10.5507 19.1971 10.4147 18.7651 10.4147C18.3171 10.4147 17.8611 10.5747 17.3971 10.8947C16.9331 11.1987 16.4851 11.6147 16.0531 12.1427C15.6211 12.6547 15.2371 13.2147 14.9011 13.8227C14.5651 14.4307 14.3011 15.0307 14.1091 15.6227C13.9171 16.2147 13.8211 16.7427 13.8211 17.2067C13.8211 17.8307 14.0371 18.1427 14.4691 18.1427C14.8371 18.1427 15.2371 17.9747 15.6691 17.6387C16.1011 17.2867 16.5411 16.8467 16.9891 16.3187C17.4531 15.7747 17.8931 15.2147 18.3091 14.6387C18.7251 14.0627 19.0931 13.5347 19.4131 13.0547C19.4771 12.9587 19.5171 12.9107 19.5331 12.9107C19.6771 12.9267 19.8691 12.9907 20.1091 13.1027C20.3491 13.1987 20.4691 13.3347 20.4691 13.5107C20.4691 13.6547 20.3971 13.8547 20.2531 14.1107C20.1091 14.3507 19.9491 14.6307 19.7731 14.9507C19.5971 15.2707 19.4371 15.5987 19.2931 15.9347C19.1491 16.2547 19.0771 16.5587 19.0771 16.8467C19.0771 17.0867 19.1411 17.3267 19.2691 17.5667C19.3971 17.7907 19.6051 17.9027 19.8931 17.9027C20.3251 17.9027 20.8931 17.5907 21.5971 16.9667C22.3011 16.3267 23.0131 15.3747 23.7331 14.1107L23.9731 14.3507C23.6371 15.2147 23.2051 15.9747 22.6771 16.6307C22.1491 17.2867 21.5811 17.7987 20.9731 18.1667C20.3811 18.5347 19.7971 18.7187 19.2211 18.7187C18.6291 18.7187 18.1891 18.5427 17.9011 18.1907C17.6291 17.8387 17.4931 17.4547 17.4931 17.0387C17.4931 16.8307 17.5171 16.5987 17.5651 16.3427C16.8771 17.2707 16.2451 17.9667 15.6691 18.4307C15.1091 18.8947 14.5331 19.1267 13.9411 19.1267ZM25.2342 18.7187C24.5462 18.7187 24.0502 18.4787 23.7462 17.9987C23.4582 17.5347 23.3142 16.9507 23.3142 16.2467C23.3142 15.4787 23.4582 14.5667 23.7462 13.5107C24.0342 12.4547 24.4102 11.3427 24.8742 10.1747C25.3542 9.00666 25.8742 7.87066 26.4342 6.76666C26.9942 5.64666 27.5542 4.63066 28.1142 3.71866C28.6742 2.80666 29.1862 2.07866 29.6502 1.53466C30.1302 0.990656 30.5062 0.718657 30.7782 0.718657C30.9542 0.718657 31.0982 0.822657 31.2102 1.03066C31.3222 1.22266 31.4102 1.46266 31.4742 1.75066C31.5382 2.02266 31.5702 2.27066 31.5702 2.49466C31.5702 2.92666 31.4582 3.49466 31.2342 4.19866C31.0262 4.88666 30.7222 5.66266 30.3222 6.52666C29.9382 7.37466 29.4742 8.23866 28.9302 9.11866C28.4022 9.98266 27.8182 10.8147 27.1782 11.6147C26.5542 12.4147 25.8902 13.1027 25.1862 13.6787C25.0902 14.1107 25.0102 14.5347 24.9462 14.9507C24.8982 15.3507 24.8742 15.7347 24.8742 16.1027C24.8742 17.3347 25.2262 17.9507 25.9302 17.9507C26.3142 17.9507 26.6982 17.7907 27.0822 17.4707C27.4822 17.1347 27.8582 16.7107 28.2102 16.1987C28.5782 15.6867 28.8982 15.1427 29.1702 14.5667C29.3302 13.7347 29.5702 12.8467 29.8902 11.9027C30.2102 10.9427 30.5782 9.98266 30.9942 9.02266C31.4102 8.06266 31.8502 7.14266 32.3142 6.26266C32.7782 5.38266 33.2342 4.59866 33.6822 3.91066C34.1302 3.22266 34.5462 2.67866 34.9302 2.27866C35.3142 1.87866 35.6262 1.67866 35.8662 1.67866C36.0422 1.67866 36.1862 1.78266 36.2982 1.99066C36.4102 2.18266 36.4982 2.42266 36.5622 2.71066C36.6262 2.98266 36.6582 3.23066 36.6582 3.45466C36.6582 3.98266 36.5222 4.67866 36.2502 5.54266C35.9782 6.39066 35.5862 7.30266 35.0742 8.27866C34.5782 9.25466 33.9702 10.2227 33.2502 11.1827C32.5462 12.1267 31.7542 12.9587 30.8742 13.6787C30.7782 14.1107 30.6982 14.5347 30.6342 14.9507C30.5862 15.3507 30.5622 15.7347 30.5622 16.1027C30.5622 17.3347 30.9142 17.9507 31.6182 17.9507C32.0502 17.9507 32.4742 17.7587 32.8902 17.3747C33.3222 16.9907 33.7222 16.5107 34.0902 15.9347C34.4742 15.3427 34.8022 14.7347 35.0742 14.1107L35.4342 14.3027C34.7942 15.6627 34.0982 16.7427 33.3462 17.5427C32.5942 18.3267 31.7862 18.7187 30.9222 18.7187C30.1542 18.7187 29.6262 18.4307 29.3382 17.8547C29.0502 17.2787 28.9462 16.5587 29.0262 15.6947C28.4662 16.6387 27.8662 17.3827 27.2262 17.9267C26.6022 18.4547 25.9382 18.7187 25.2342 18.7187ZM25.4022 12.8627C25.9622 12.3027 26.5062 11.6627 27.0342 10.9427C27.5622 10.2067 28.0502 9.44666 28.4982 8.66266C28.9622 7.87866 29.3702 7.11866 29.7222 6.38266C30.0742 5.64666 30.3462 4.99066 30.5382 4.41466C30.7302 3.82266 30.8262 3.36666 30.8262 3.04666C30.8262 2.88666 30.8022 2.78266 30.7542 2.73466C30.7222 2.68666 30.6902 2.66266 30.6582 2.66266C30.5302 2.66266 30.3062 2.87066 29.9862 3.28666C29.6822 3.68666 29.3222 4.23066 28.9062 4.91866C28.4902 5.60666 28.0662 6.39066 27.6342 7.27066C27.2022 8.15066 26.7862 9.07066 26.3862 10.0307C26.0022 10.9907 25.6742 11.9347 25.4022 12.8627ZM31.0902 12.8627C31.7942 12.1587 32.4342 11.3827 33.0102 10.5347C33.6022 9.68666 34.1142 8.83866 34.5462 7.99066C34.9782 7.14266 35.3142 6.36666 35.5542 5.66266C35.7942 4.95866 35.9142 4.40666 35.9142 4.00666C35.9142 3.84666 35.8902 3.74266 35.8422 3.69466C35.8102 3.64666 35.7782 3.62266 35.7462 3.62266C35.5862 3.62266 35.3142 3.88666 34.9302 4.41466C34.5622 4.92666 34.1382 5.62266 33.6582 6.50266C33.1942 7.38266 32.7302 8.37466 32.2662 9.47866C31.8182 10.5827 31.4262 11.7107 31.0902 12.8627ZM37.1779 19.0547C36.2019 19.0547 35.4659 18.7827 34.9699 18.2387C34.4899 17.7107 34.2499 17.0547 34.2499 16.2707C34.2499 15.5507 34.4259 14.7907 34.7779 13.9907C35.1459 13.1907 35.6259 12.4387 36.2179 11.7347C36.8259 11.0307 37.4899 10.4627 38.2099 10.0307C38.9299 9.58266 39.6419 9.35866 40.3459 9.35866C40.7139 9.35866 41.0499 9.45466 41.3539 9.64666C41.6739 9.83866 41.8339 10.2307 41.8339 10.8227C41.8339 11.4307 41.6499 12.0067 41.2819 12.5507C40.9299 13.0787 40.4579 13.5507 39.8659 13.9667C39.2899 14.3827 38.6499 14.7267 37.9459 14.9987C37.2579 15.2547 36.5699 15.4147 35.8819 15.4787C35.8499 15.6387 35.8259 15.7907 35.8099 15.9347C35.7939 16.0787 35.7859 16.2147 35.7859 16.3427C35.7859 16.8387 35.9139 17.3027 36.1699 17.7347C36.4419 18.1507 36.9459 18.3587 37.6819 18.3587C38.3699 18.3587 39.0499 18.1667 39.7219 17.7827C40.3939 17.3827 41.0179 16.8627 41.5939 16.2227C42.1699 15.5827 42.6579 14.8787 43.0579 14.1107L43.3459 14.3267C42.9139 15.2867 42.3619 16.1187 41.6899 16.8227C41.0339 17.5267 40.3139 18.0707 39.5299 18.4547C38.7619 18.8547 37.9779 19.0547 37.1779 19.0547ZM36.0019 15.0227C36.4339 14.8787 36.9219 14.6707 37.4659 14.3987C38.0099 14.1107 38.5299 13.7747 39.0259 13.3907C39.5379 13.0067 39.9539 12.5827 40.2739 12.1187C40.6099 11.6547 40.7779 11.1667 40.7779 10.6547C40.7779 10.4787 40.7459 10.3427 40.6819 10.2467C40.6179 10.1507 40.4819 10.1027 40.2739 10.1027C39.8899 10.1027 39.4819 10.2547 39.0499 10.5587C38.6179 10.8467 38.2019 11.2307 37.8019 11.7107C37.4019 12.1907 37.0419 12.7187 36.7219 13.2947C36.4019 13.8707 36.1619 14.4467 36.0019 15.0227ZM46.7301 18.6227C46.1861 18.6227 45.7541 18.4787 45.4341 18.1907C45.1301 17.9027 44.9781 17.5267 44.9781 17.0627C44.9781 16.5827 45.0901 16.0787 45.3141 15.5507C45.5381 15.0227 45.7541 14.5027 45.9621 13.9907C46.1861 13.4627 46.2981 12.9907 46.2981 12.5747C46.2981 12.0627 46.1461 11.6867 45.8421 11.4467C45.5541 11.1907 45.2581 10.9587 44.9541 10.7507C44.5861 11.6947 44.2021 12.5907 43.8021 13.4387C43.4021 14.2867 43.0741 14.9267 42.8181 15.3587L42.6021 14.9507C42.8261 14.5347 43.1141 13.9267 43.4661 13.1267C43.8341 12.3267 44.1941 11.4147 44.5461 10.3907C44.3861 10.2307 44.3061 10.0387 44.3061 9.81466C44.3061 9.33466 44.4421 8.94266 44.7141 8.63866C44.9861 8.33466 45.1861 8.18266 45.3141 8.18266C45.4901 8.18266 45.5861 8.26266 45.6021 8.42266C45.6341 8.56666 45.6501 8.67866 45.6501 8.75866C45.6501 8.83866 45.6021 8.99866 45.5061 9.23866C45.4261 9.46266 45.3861 9.59866 45.3861 9.64666C45.3861 9.87066 45.5061 10.0787 45.7461 10.2707C46.0021 10.4467 46.2901 10.6547 46.6101 10.8947C46.9301 11.1187 47.2101 11.3987 47.4501 11.7347C47.7061 12.0547 47.8341 12.4707 47.8341 12.9827C47.8341 13.4627 47.7301 13.9507 47.5221 14.4467C47.3301 14.9427 47.1301 15.4147 46.9221 15.8627C46.7301 16.3107 46.6341 16.7027 46.6341 17.0387C46.6341 17.3267 46.7061 17.5187 46.8501 17.6147C46.9941 17.7107 47.1621 17.7587 47.3541 17.7587C47.7381 17.7587 48.1301 17.6387 48.5301 17.3987C48.9461 17.1587 49.3461 16.8547 49.7301 16.4867C50.1141 16.1187 50.4581 15.7347 50.7621 15.3347C51.0661 14.9187 51.2901 14.5347 51.4341 14.1827L51.7461 14.4227C51.4421 15.0947 51.0261 15.7587 50.4981 16.4147C49.9701 17.0547 49.3781 17.5827 48.7221 17.9987C48.0821 18.4147 47.4181 18.6227 46.7301 18.6227ZM51.9539 24.7187C51.5539 24.7187 51.2019 24.6067 50.8979 24.3827C50.5939 24.1747 50.4419 23.8627 50.4419 23.4467C50.4419 22.7587 50.6579 22.1667 51.0899 21.6707C51.5379 21.1747 52.1139 20.7187 52.8179 20.3027C53.5379 19.9027 54.2979 19.5027 55.0979 19.1027C55.3219 18.5107 55.5459 17.8547 55.7699 17.1347C56.0099 16.3987 56.2339 15.5907 56.4419 14.7107C55.9299 15.5427 55.3779 16.2627 54.7859 16.8707C54.2099 17.4627 53.5939 17.7587 52.9379 17.7587C52.4739 17.7587 52.0339 17.6067 51.6179 17.3027C51.2179 16.9827 51.0179 16.4867 51.0179 15.8147C51.0179 15.3667 51.0899 14.8467 51.2339 14.2547C51.3939 13.6627 51.5859 13.0867 51.8099 12.5267C52.0339 11.9667 52.2659 11.5027 52.5059 11.1347C52.7459 10.7667 52.9539 10.5827 53.1299 10.5827C53.1939 10.5827 53.3059 10.6067 53.4659 10.6547C53.6419 10.7027 53.8019 10.7747 53.9459 10.8707C54.1059 10.9507 54.1859 11.0387 54.1859 11.1347C54.0419 11.3427 53.8819 11.6387 53.7059 12.0227C53.5299 12.4067 53.3539 12.8387 53.1779 13.3187C53.0179 13.7827 52.8819 14.2387 52.7699 14.6867C52.6579 15.1347 52.6019 15.5187 52.6019 15.8387C52.6019 16.1267 52.6659 16.3587 52.7939 16.5347C52.9219 16.7107 53.1459 16.7987 53.4659 16.7987C53.7699 16.7987 54.1059 16.6547 54.4739 16.3667C54.8579 16.0627 55.2339 15.6787 55.6019 15.2147C55.9859 14.7507 56.3379 14.2547 56.6579 13.7267C56.7059 13.5507 56.7459 13.3747 56.7779 13.1987C56.8259 13.0067 56.8659 12.8147 56.8979 12.6227C56.9459 12.3987 57.0579 12.1427 57.2339 11.8547C57.4259 11.5507 57.7219 11.3987 58.1219 11.3987C58.2659 11.3987 58.4339 11.4227 58.6259 11.4707C58.6259 11.7267 58.5459 12.2067 58.3859 12.9107C58.2419 13.5987 58.0259 14.4067 57.7379 15.3347C57.4659 16.2627 57.1379 17.2147 56.7539 18.1907C57.5059 17.9027 58.2419 17.4307 58.9619 16.7747C59.6819 16.1027 60.2659 15.2147 60.7139 14.1107L61.0259 14.3507C60.7859 15.1187 60.4179 15.7907 59.9219 16.3667C59.4419 16.9267 58.8979 17.4147 58.2899 17.8307C57.6819 18.2307 57.0819 18.5667 56.4899 18.8387C56.0739 19.8627 55.6179 20.8227 55.1219 21.7187C54.6419 22.6147 54.1299 23.3347 53.5859 23.8787C53.0579 24.4387 52.5139 24.7187 51.9539 24.7187ZM51.8339 23.9507C52.0739 23.9507 52.4739 23.6307 53.0339 22.9907C53.6099 22.3667 54.2179 21.2627 54.8579 19.6787C54.2019 20.0307 53.5939 20.3747 53.0339 20.7107C52.4739 21.0627 52.0259 21.4387 51.6899 21.8387C51.3539 22.2387 51.1859 22.7027 51.1859 23.2307C51.1859 23.3587 51.2339 23.5107 51.3299 23.6867C51.4259 23.8627 51.5939 23.9507 51.8339 23.9507ZM69.0524 19.3427C68.2844 19.3427 67.6444 19.0867 67.1324 18.5747C66.6204 18.0627 66.3644 17.2947 66.3644 16.2707C66.3644 15.4707 66.5164 14.6947 66.8204 13.9427C67.1404 13.1747 67.5564 12.4867 68.0684 11.8787C68.5804 11.2707 69.1484 10.7907 69.7724 10.4387C70.3964 10.0707 71.0124 9.88666 71.6204 9.88666C72.2764 9.88666 72.7244 10.0787 72.9644 10.4627C73.2044 10.8467 73.3244 11.2467 73.3244 11.6627C73.3244 12.1267 73.2124 12.5347 72.9884 12.8867C72.7804 13.2387 72.4924 13.4147 72.1244 13.4147C71.8524 13.4147 71.6204 13.2947 71.4284 13.0547C71.6684 12.9267 71.8764 12.6707 72.0524 12.2867C72.2284 11.8867 72.3164 11.5107 72.3164 11.1587C72.3164 10.9667 72.2764 10.8227 72.1964 10.7267C72.1324 10.6147 71.9964 10.5587 71.7884 10.5587C71.3564 10.5587 70.9084 10.7507 70.4444 11.1347C69.9964 11.5187 69.5724 12.0147 69.1724 12.6227C68.7884 13.2307 68.4684 13.8707 68.2124 14.5427C67.9724 15.2147 67.8524 15.8467 67.8524 16.4387C67.8524 16.9347 67.9724 17.3907 68.2124 17.8067C68.4524 18.2227 68.9164 18.4307 69.6044 18.4307C70.2444 18.4307 70.8844 18.2547 71.5244 17.9027C72.1804 17.5507 72.7884 17.0467 73.3484 16.3907C73.9084 15.7347 74.3564 14.9667 74.6924 14.0867L75.0044 14.3267C74.6364 15.2867 74.1324 16.1507 73.4924 16.9187C72.8524 17.6707 72.1484 18.2627 71.3804 18.6947C70.6124 19.1267 69.8364 19.3427 69.0524 19.3427ZM75.8982 18.7667C75.2102 18.7667 74.7222 18.5507 74.4342 18.1187C74.1462 17.7027 74.0022 17.1907 74.0022 16.5827C74.0022 16.0867 74.0822 15.5747 74.2422 15.0467C74.4022 14.5187 74.6102 14.0227 74.8662 13.5587C75.1382 13.0947 75.4342 12.7187 75.7542 12.4307C76.0902 12.1427 76.4262 11.9987 76.7622 11.9987C76.9062 11.9987 77.0742 12.0387 77.2662 12.1187C77.1222 12.2467 76.9462 12.4867 76.7382 12.8387C76.5462 13.1747 76.3622 13.5667 76.1862 14.0147C76.0102 14.4467 75.8582 14.8787 75.7302 15.3107C75.6182 15.7427 75.5622 16.1107 75.5622 16.4147C75.5622 16.8947 75.6422 17.2467 75.8022 17.4707C75.9622 17.6787 76.1702 17.7827 76.4262 17.7827C76.7622 17.7827 77.1622 17.6067 77.6262 17.2547C78.0902 16.8867 78.5462 16.4227 78.9942 15.8627C78.5462 15.4947 78.1942 15.0147 77.9382 14.4227C77.6982 13.8147 77.5782 13.1987 77.5782 12.5747C77.5782 12.0467 77.6662 11.5507 77.8422 11.0867C78.0342 10.6227 78.3062 10.2547 78.6582 9.98266C79.0102 9.69466 79.4342 9.55066 79.9302 9.55066C80.5862 9.55066 81.0262 9.72666 81.2502 10.0787C81.4742 10.4307 81.5862 10.8707 81.5862 11.3987C81.5862 12.0227 81.4342 12.7187 81.1302 13.4867C80.8262 14.2387 80.4422 14.9667 79.9782 15.6707C80.2662 15.8307 80.5702 15.9107 80.8902 15.9107C81.2582 15.9107 81.7062 15.7907 82.2342 15.5507C82.7622 15.2947 83.1702 14.8387 83.4582 14.1827L83.7462 14.4227C83.4262 15.1747 82.9702 15.7107 82.3782 16.0307C81.8022 16.3347 81.2502 16.4867 80.7222 16.4867C80.2902 16.4867 79.9062 16.4067 79.5702 16.2467C79.0262 16.9667 78.4262 17.5667 77.7702 18.0467C77.1302 18.5267 76.5062 18.7667 75.8982 18.7667ZM79.4262 15.2387C79.8262 14.6467 80.1542 14.0307 80.4102 13.3907C80.6822 12.7347 80.8182 12.1187 80.8182 11.5427C80.8182 11.0787 80.7462 10.7427 80.6022 10.5347C80.4742 10.3107 80.3062 10.1987 80.0982 10.1987C79.7782 10.1987 79.4502 10.4307 79.1142 10.8947C78.7782 11.3587 78.6102 11.9427 78.6102 12.6467C78.6102 13.1107 78.6742 13.5827 78.8022 14.0627C78.9462 14.5267 79.1542 14.9187 79.4262 15.2387ZM84.9998 18.7187C84.3118 18.7187 83.8158 18.4787 83.5118 17.9987C83.2238 17.5347 83.0798 16.9507 83.0798 16.2467C83.0798 15.4787 83.2238 14.5667 83.5118 13.5107C83.7998 12.4547 84.1758 11.3427 84.6398 10.1747C85.1198 9.00666 85.6398 7.87066 86.1998 6.76666C86.7598 5.64666 87.3198 4.63066 87.8798 3.71866C88.4398 2.80666 88.9518 2.07866 89.4158 1.53466C89.8958 0.990656 90.2718 0.718657 90.5438 0.718657C90.7198 0.718657 90.8638 0.822657 90.9758 1.03066C91.0878 1.22266 91.1758 1.46266 91.2398 1.75066C91.3038 2.02266 91.3358 2.27066 91.3358 2.49466C91.3358 2.92666 91.2238 3.49466 90.9998 4.19866C90.7918 4.88666 90.4878 5.66266 90.0878 6.52666C89.7038 7.37466 89.2398 8.23866 88.6958 9.11866C88.1678 9.98266 87.5838 10.8147 86.9438 11.6147C86.3198 12.4147 85.6558 13.1027 84.9518 13.6787C84.8558 14.1107 84.7758 14.5347 84.7118 14.9507C84.6638 15.3507 84.6398 15.7347 84.6398 16.1027C84.6398 17.3347 84.9918 17.9507 85.6958 17.9507C86.1278 17.9507 86.5518 17.7587 86.9678 17.3747C87.3998 16.9907 87.7998 16.5107 88.1678 15.9347C88.5518 15.3427 88.8798 14.7347 89.1518 14.1107L89.5118 14.3027C88.8718 15.6627 88.1758 16.7427 87.4238 17.5427C86.6718 18.3267 85.8638 18.7187 84.9998 18.7187ZM85.1678 12.8627C85.7278 12.3027 86.2718 11.6627 86.7998 10.9427C87.3278 10.2067 87.8158 9.44666 88.2638 8.66266C88.7278 7.87866 89.1358 7.11866 89.4878 6.38266C89.8398 5.64666 90.1118 4.99066 90.3038 4.41466C90.4958 3.82266 90.5918 3.36666 90.5918 3.04666C90.5918 2.88666 90.5678 2.78266 90.5198 2.73466C90.4878 2.68666 90.4558 2.66266 90.4238 2.66266C90.2958 2.66266 90.0718 2.87066 89.7518 3.28666C89.4478 3.68666 89.0878 4.23066 88.6718 4.91866C88.2558 5.60666 87.8318 6.39066 87.3998 7.27066C86.9678 8.15066 86.5518 9.07066 86.1518 10.0307C85.7678 10.9907 85.4398 11.9347 85.1678 12.8627ZM91.2717 19.0547C90.2957 19.0547 89.5597 18.7827 89.0637 18.2387C88.5837 17.7107 88.3437 17.0547 88.3437 16.2707C88.3437 15.5507 88.5197 14.7907 88.8717 13.9907C89.2397 13.1907 89.7197 12.4387 90.3117 11.7347C90.9197 11.0307 91.5837 10.4627 92.3037 10.0307C93.0237 9.58266 93.7357 9.35866 94.4397 9.35866C94.8077 9.35866 95.1437 9.45466 95.4477 9.64666C95.7677 9.83866 95.9277 10.2307 95.9277 10.8227C95.9277 11.4307 95.7437 12.0067 95.3757 12.5507C95.0237 13.0787 94.5517 13.5507 93.9597 13.9667C93.3837 14.3827 92.7437 14.7267 92.0397 14.9987C91.3517 15.2547 90.6637 15.4147 89.9757 15.4787C89.9437 15.6387 89.9197 15.7907 89.9037 15.9347C89.8877 16.0787 89.8797 16.2147 89.8797 16.3427C89.8797 16.8387 90.0077 17.3027 90.2637 17.7347C90.5357 18.1507 91.0397 18.3587 91.7757 18.3587C92.4637 18.3587 93.1437 18.1667 93.8157 17.7827C94.4877 17.3827 95.1117 16.8627 95.6877 16.2227C96.2637 15.5827 96.7517 14.8787 97.1517 14.1107L97.4397 14.3267C97.0077 15.2867 96.4557 16.1187 95.7837 16.8227C95.1277 17.5267 94.4077 18.0707 93.6237 18.4547C92.8557 18.8547 92.0717 19.0547 91.2717 19.0547ZM90.0957 15.0227C90.5277 14.8787 91.0157 14.6707 91.5597 14.3987C92.1037 14.1107 92.6237 13.7747 93.1197 13.3907C93.6317 13.0067 94.0477 12.5827 94.3677 12.1187C94.7037 11.6547 94.8717 11.1667 94.8717 10.6547C94.8717 10.4787 94.8397 10.3427 94.7757 10.2467C94.7117 10.1507 94.5757 10.1027 94.3677 10.1027C93.9837 10.1027 93.5757 10.2547 93.1437 10.5587C92.7117 10.8467 92.2957 11.2307 91.8957 11.7107C91.4957 12.1907 91.1357 12.7187 90.8157 13.2947C90.4957 13.8707 90.2557 14.4467 90.0957 15.0227ZM99.2399 19.3427C98.4719 19.3427 97.8319 19.0867 97.3199 18.5747C96.8079 18.0627 96.5519 17.2947 96.5519 16.2707C96.5519 15.4707 96.7039 14.6947 97.0079 13.9427C97.3279 13.1747 97.7439 12.4867 98.2559 11.8787C98.7679 11.2707 99.3359 10.7907 99.9599 10.4387C100.584 10.0707 101.2 9.88666 101.808 9.88666C102.464 9.88666 102.912 10.0787 103.152 10.4627C103.392 10.8467 103.512 11.2467 103.512 11.6627C103.512 12.1267 103.4 12.5347 103.176 12.8867C102.968 13.2387 102.68 13.4147 102.312 13.4147C102.04 13.4147 101.808 13.2947 101.616 13.0547C101.856 12.9267 102.064 12.6707 102.24 12.2867C102.416 11.8867 102.504 11.5107 102.504 11.1587C102.504 10.9667 102.464 10.8227 102.384 10.7267C102.32 10.6147 102.184 10.5587 101.976 10.5587C101.544 10.5587 101.096 10.7507 100.632 11.1347C100.184 11.5187 99.7599 12.0147 99.3599 12.6227C98.9759 13.2307 98.6559 13.8707 98.3999 14.5427C98.1599 15.2147 98.0399 15.8467 98.0399 16.4387C98.0399 16.9347 98.1599 17.3907 98.3999 17.8067C98.6399 18.2227 99.1039 18.4307 99.7919 18.4307C100.432 18.4307 101.072 18.2547 101.712 17.9027C102.368 17.5507 102.976 17.0467 103.536 16.3907C104.096 15.7347 104.544 14.9667 104.88 14.0867L105.192 14.3267C104.824 15.2867 104.32 16.1507 103.68 16.9187C103.04 17.6707 102.336 18.2627 101.568 18.6947C100.8 19.1267 100.024 19.3427 99.2399 19.3427ZM106.47 19.1027C105.046 19.1027 104.334 18.3107 104.334 16.7267C104.334 16.0227 104.462 15.1587 104.718 14.1347C104.99 13.0947 105.326 12.0307 105.726 10.9427C105.566 10.9107 105.414 10.8867 105.27 10.8707C105.126 10.8387 104.99 10.7987 104.862 10.7507V10.3187C104.99 10.3347 105.142 10.3507 105.318 10.3667C105.494 10.3827 105.694 10.3987 105.918 10.4147C106.254 9.55066 106.614 8.71866 106.998 7.91866C107.382 7.10266 107.758 6.38266 108.126 5.75866C108.51 5.11866 108.87 4.61466 109.206 4.24666C109.558 3.86266 109.854 3.67066 110.094 3.67066C110.222 3.67066 110.334 3.71866 110.43 3.81466C110.542 3.89466 110.598 4.02266 110.598 4.19866C110.598 4.47066 110.43 4.91866 110.094 5.54266C109.758 6.15066 109.342 6.87866 108.846 7.72666C108.35 8.57466 107.87 9.49466 107.406 10.4867H108.294C108.822 10.4867 109.374 10.4787 109.95 10.4627C110.542 10.4467 111.134 10.4067 111.726 10.3427V10.7747C109.982 10.9667 108.574 11.0627 107.502 11.0627H107.142C106.774 11.9107 106.462 12.7827 106.206 13.6787C105.95 14.5747 105.822 15.4467 105.822 16.2947C105.822 16.9827 105.926 17.4787 106.134 17.7827C106.342 18.0707 106.686 18.2147 107.166 18.2147C107.998 18.2147 108.814 17.8467 109.614 17.1107C110.414 16.3747 111.118 15.3747 111.726 14.1107L112.038 14.3507C111.654 15.2467 111.166 16.0547 110.574 16.7747C109.998 17.4947 109.358 18.0627 108.654 18.4787C107.95 18.8947 107.222 19.1027 106.47 19.1027ZM115.881 7.63066C115.625 7.63066 115.393 7.56666 115.185 7.43866C114.993 7.31066 114.897 7.11066 114.897 6.83866C114.897 6.50266 115.089 6.21466 115.473 5.97466C115.873 5.71866 116.265 5.59066 116.649 5.59066C116.889 5.59066 117.081 5.64666 117.225 5.75866C117.369 5.87066 117.441 6.06266 117.441 6.33466C117.441 6.63866 117.273 6.93466 116.937 7.22266C116.617 7.49466 116.265 7.63066 115.881 7.63066ZM113.001 18.6227C112.377 18.6227 111.913 18.4227 111.609 18.0227C111.305 17.6387 111.153 17.1667 111.153 16.6067C111.153 16.2387 111.217 15.7747 111.345 15.2147C111.489 14.6547 111.673 14.0707 111.897 13.4627C112.121 12.8387 112.377 12.2547 112.665 11.7107C112.969 11.1667 113.289 10.7267 113.625 10.3907C113.961 10.0387 114.289 9.86266 114.609 9.86266C114.753 9.86266 114.873 9.91066 114.969 10.0067C115.081 10.0867 115.137 10.2147 115.137 10.3907C115.137 10.5827 115.009 10.8947 114.753 11.3267C114.513 11.7587 114.225 12.2547 113.889 12.8147C113.553 13.3747 113.257 13.9667 113.001 14.5907C112.761 15.1987 112.641 15.7827 112.641 16.3427C112.641 16.9187 112.737 17.3027 112.929 17.4947C113.121 17.6867 113.417 17.7827 113.817 17.7827C114.361 17.7827 114.937 17.5107 115.545 16.9667C116.169 16.4227 116.825 15.4707 117.513 14.1107L117.729 14.3507C117.265 15.7267 116.593 16.7827 115.713 17.5187C114.849 18.2547 113.945 18.6227 113.001 18.6227ZM118.719 18.7667C118.031 18.7667 117.543 18.5507 117.255 18.1187C116.966 17.7027 116.822 17.1907 116.822 16.5827C116.822 16.0867 116.902 15.5747 117.062 15.0467C117.223 14.5187 117.431 14.0227 117.687 13.5587C117.959 13.0947 118.255 12.7187 118.575 12.4307C118.911 12.1427 119.247 11.9987 119.583 11.9987C119.727 11.9987 119.895 12.0387 120.087 12.1187C119.943 12.2467 119.767 12.4867 119.559 12.8387C119.367 13.1747 119.183 13.5667 119.007 14.0147C118.831 14.4467 118.679 14.8787 118.551 15.3107C118.439 15.7427 118.383 16.1107 118.383 16.4147C118.383 16.8947 118.463 17.2467 118.623 17.4707C118.783 17.6787 118.991 17.7827 119.247 17.7827C119.583 17.7827 119.983 17.6067 120.447 17.2547C120.911 16.8867 121.367 16.4227 121.815 15.8627C121.367 15.4947 121.015 15.0147 120.759 14.4227C120.519 13.8147 120.399 13.1987 120.399 12.5747C120.399 12.0467 120.487 11.5507 120.663 11.0867C120.855 10.6227 121.127 10.2547 121.479 9.98266C121.831 9.69466 122.255 9.55066 122.751 9.55066C123.407 9.55066 123.847 9.72666 124.071 10.0787C124.295 10.4307 124.407 10.8707 124.407 11.3987C124.407 12.0227 124.255 12.7187 123.951 13.4867C123.647 14.2387 123.263 14.9667 122.799 15.6707C123.087 15.8307 123.391 15.9107 123.711 15.9107C124.079 15.9107 124.527 15.7907 125.055 15.5507C125.583 15.2947 125.991 14.8387 126.279 14.1827L126.567 14.4227C126.247 15.1747 125.791 15.7107 125.199 16.0307C124.623 16.3347 124.071 16.4867 123.543 16.4867C123.111 16.4867 122.727 16.4067 122.391 16.2467C121.847 16.9667 121.247 17.5667 120.59 18.0467C119.951 18.5267 119.327 18.7667 118.719 18.7667ZM122.247 15.2387C122.647 14.6467 122.975 14.0307 123.23 13.3907C123.503 12.7347 123.639 12.1187 123.639 11.5427C123.639 11.0787 123.567 10.7427 123.423 10.5347C123.295 10.3107 123.127 10.1987 122.919 10.1987C122.599 10.1987 122.271 10.4307 121.935 10.8947C121.599 11.3587 121.431 11.9427 121.431 12.6467C121.431 13.1107 121.495 13.5827 121.623 14.0627C121.767 14.5267 121.975 14.9187 122.247 15.2387ZM133.58 18.4787C133.02 18.4787 132.596 18.3347 132.308 18.0467C132.036 17.7587 131.9 17.3907 131.9 16.9427C131.9 16.6067 131.956 16.2547 132.068 15.8867C132.196 15.5187 132.316 15.1427 132.428 14.7587C132.54 14.3587 132.596 13.9747 132.596 13.6067C132.596 13.1587 132.5 12.8547 132.308 12.6947C132.132 12.5187 131.908 12.4307 131.636 12.4307C131.14 12.4307 130.636 12.6387 130.124 13.0547C129.612 13.4547 129.116 13.9747 128.636 14.6147C128.156 15.2387 127.708 15.8867 127.292 16.5587C126.876 17.2307 126.508 17.8307 126.188 18.3587C125.932 18.3587 125.692 18.3107 125.468 18.2147C125.228 18.1347 125.044 18.0067 124.916 17.8307C124.916 17.7507 125.004 17.5027 125.18 17.0867C125.34 16.6707 125.532 16.1587 125.756 15.5507C125.98 14.9427 126.18 14.3187 126.356 13.6787C126.532 13.0387 126.62 12.4547 126.62 11.9267C126.716 11.8147 126.868 11.7027 127.076 11.5907C127.284 11.4787 127.5 11.4227 127.724 11.4227C128.156 11.4227 128.372 11.6307 128.372 12.0467C128.372 12.3027 128.3 12.7347 128.156 13.3427C128.012 13.9347 127.828 14.5587 127.604 15.2147C128.036 14.5587 128.516 13.9107 129.044 13.2707C129.588 12.6147 130.164 12.0707 130.772 11.6387C131.38 11.2067 131.988 10.9907 132.596 10.9907C133.22 10.9907 133.668 11.2147 133.94 11.6627C134.228 12.1107 134.372 12.6067 134.372 13.1507C134.372 13.6467 134.292 14.1107 134.132 14.5427C133.972 14.9587 133.804 15.3667 133.628 15.7667C133.468 16.1507 133.388 16.5427 133.388 16.9427C133.388 17.2787 133.452 17.5187 133.58 17.6627C133.724 17.7907 133.9 17.8547 134.108 17.8547C134.508 17.8547 134.908 17.6707 135.308 17.3027C135.708 16.9187 136.092 16.4387 136.46 15.8627C136.844 15.2867 137.18 14.7027 137.468 14.1107L137.732 14.4227C137.236 15.5907 136.644 16.5587 135.956 17.3267C135.268 18.0947 134.476 18.4787 133.58 18.4787Z" fill="#8B0029"/>
</svg>
