<svg width="151" height="21" viewBox="0 0 151 21" fill="none" xmlns="http://www.w3.org/2000/svg">
<g opacity="0.5" clip-path="url(#clip0)">
<path d="M63.9835 16.295C64.1593 16.295 64.423 16.3829 64.7307 16.6027C65.0384 16.8225 65.1703 16.9104 65.2142 16.9104C65.3461 16.9104 65.478 16.7785 65.5219 16.4708C65.5659 16.0312 65.6099 15.8115 65.6099 15.8115C65.6978 15.6356 65.8736 15.4598 66.1813 15.284C66.445 15.1082 66.7088 15.0203 66.8846 15.0203C67.3681 15.0203 67.7637 15.1521 68.1153 15.4159C68.467 15.6796 68.6428 15.9873 68.6428 16.251C68.6428 16.4708 68.5549 16.6466 68.3351 16.8225C68.1153 16.9983 67.8956 17.0862 67.6318 17.0862C67.2802 17.0862 66.8846 16.9543 66.489 16.6027C66.3571 16.6466 66.2692 16.7345 66.2692 16.8225C66.2692 17.1741 66.445 17.5697 66.7967 18.0972C67.1483 18.6247 67.5 18.8884 67.8516 18.8884C67.8076 18.7126 67.7637 18.4928 67.6758 18.273C67.5879 18.0532 67.5439 17.9214 67.5439 17.8774C67.5439 17.4818 67.6318 17.306 67.8077 17.306C67.9395 17.306 68.0714 17.4378 68.2472 17.7016C68.423 18.0532 68.5989 18.273 68.7307 18.4049C69.1703 18.8005 69.7417 18.9763 70.5329 18.9763C71.0164 18.9763 71.5 18.7565 72.0274 18.273C72.5109 17.7895 72.8626 17.1741 73.0824 16.3829C72.7307 16.2071 72.3791 15.9873 72.0714 15.8115C71.8516 15.6356 71.7197 15.4159 71.7197 15.1961C71.7197 14.6247 71.8956 14.229 72.2033 14.0532C72.3791 13.9653 72.5109 13.9214 72.6868 13.8334C72.8626 13.7455 72.9505 13.6137 72.9505 13.3499C72.9505 12.9104 72.8186 12.5587 72.5989 12.251C72.3791 11.9433 72.1153 11.7675 71.8076 11.8115C71.5 11.8115 71.2362 11.8994 70.9725 12.1192C70.7087 12.3389 70.5769 12.5587 70.5769 12.7785C70.5769 12.9104 70.6208 13.0862 70.6648 13.306C70.7088 13.5258 70.7527 13.7016 70.7527 13.7895C70.7527 13.9653 70.7087 14.1851 70.5769 14.3609C70.445 14.5367 70.3131 14.6247 70.2252 14.6247C70.0055 14.6247 69.8296 14.4488 69.6978 14.1411C69.5659 13.7455 69.434 13.306 69.3022 12.8664C69.1703 12.5587 69.0384 12.251 68.9066 11.9873C68.7747 11.5917 68.6868 11.284 68.6868 10.9763C68.6868 10.273 68.9066 9.61366 69.3022 9.04224C69.7417 8.47081 70.2252 8.20707 70.8406 8.20707C72.1153 8.20707 72.9945 9.21806 73.5219 11.1961C73.5659 11.4159 73.6098 11.8115 73.6538 12.3829C73.6978 12.7785 73.7417 13.0862 73.8736 13.262L74.0494 13.3939C74.1373 13.3499 74.2252 13.262 74.2252 12.9983C74.2252 10.4928 73.6098 8.51476 72.3791 7.06421C71.8076 6.40487 71.1044 5.83344 70.2692 5.43784C69.434 4.99828 68.6428 4.7785 67.9395 4.7785C67.8076 4.7785 67.5879 4.82246 67.3241 4.86641C67.0604 4.91037 66.8846 4.95432 66.7527 4.95432C66.6208 4.86641 66.5329 4.82246 66.5329 4.73454C66.5329 4.69059 66.7967 4.3829 67.2802 3.81147C66.445 2.84443 65.6538 2.31696 64.8626 2.31696C64.467 2.31696 64.1153 2.36092 63.8077 2.49279C63.456 2.62465 63.3241 2.66861 63.2802 2.66861C63.0164 2.53674 62.8406 2.31696 62.8406 2.05323C62.8406 1.39388 63.2802 1.04224 64.2033 1.04224C64.2472 1.04224 64.5549 1.13015 65.0824 1.34993C65.3461 1.43784 65.6099 1.56971 65.9175 1.65762C66.2692 1.78949 66.5329 1.92136 66.7967 2.09718C67.1044 2.27301 67.456 2.62465 67.8956 3.19608C68.2472 3.59169 68.5549 3.76751 68.8186 3.76751C68.9065 3.76751 69.0824 3.6796 69.3022 3.50377C69.5219 3.32795 69.6978 3.24004 69.7857 3.24004C70.489 3.24004 71.2802 3.6796 72.1153 4.55872C72.9505 5.4818 73.6538 6.5807 74.1813 7.94333C74.4011 8.55872 74.5769 9.56971 74.6648 10.9763C74.6648 11.24 74.7087 11.5038 74.7087 11.7675V12.0752C74.7087 12.7785 74.7967 13.2181 75.0164 13.3939C75.1044 13.0862 75.1923 12.8225 75.1923 12.5587C75.1923 12.4269 75.1483 12.1192 75.1044 11.5917C75.0604 11.0642 75.0164 10.5807 75.0164 10.1851V9.83344C75.0164 8.99828 74.7967 8.03125 74.4011 6.84443C73.9615 5.65762 73.7857 4.99828 73.7857 4.82246C73.7857 4.42685 73.8736 4.0752 74.0054 3.72355C74.1373 3.37191 74.2692 3.15213 74.4011 3.15213C74.445 3.15213 74.5769 3.19608 74.7087 3.28399C74.8406 3.37191 74.9285 3.41586 74.9725 3.41586C75.0164 3.41586 75.0604 3.37191 75.1044 3.32795C74.9285 2.84443 74.8406 2.49279 74.8406 2.27301C74.8406 1.92136 74.9285 1.65762 75.1483 1.39388C75.3241 1.1741 75.5879 1.04224 75.8516 1.04224C76.423 1.04224 76.7307 1.4818 76.7307 2.36092V2.71257C76.7307 3.15213 76.8186 3.37191 76.9505 3.37191C76.9945 3.37191 77.0384 3.37191 77.0824 3.32795C77.1263 3.32795 77.1703 3.28399 77.2142 3.28399C77.3461 3.28399 77.478 3.41586 77.6098 3.63564C77.7417 3.85542 77.7857 4.16312 77.7857 4.47081C77.7857 5.1741 77.478 6.22905 76.8626 7.76751C76.2912 9.1741 75.9835 10.7565 75.9835 12.5587C75.9835 12.6466 75.9835 12.7345 75.9835 12.8664C75.9835 12.9983 75.9835 13.0422 75.9835 13.0422C75.9835 13.262 76.0714 13.4378 76.2472 13.4818C76.5109 12.2071 76.8186 10.9323 77.1263 9.65762C77.434 8.51476 77.7417 7.63564 78.0494 7.06421C79.1483 5.13015 80.1593 4.11916 81.0824 4.11916C81.2582 4.11916 81.478 4.16312 81.6538 4.25103C81.8296 4.33894 81.9175 4.3829 81.9175 4.3829C82.1373 4.3829 82.2692 4.20707 82.4011 3.89938C82.5769 3.45982 82.6648 3.19608 82.6648 3.19608C83.2802 2.40487 84.5549 2.00927 86.489 2.00927C87.1483 2.00927 87.6318 2.14114 88.0274 2.36092C88.423 2.5807 88.5988 2.88839 88.5988 3.24004C88.5988 3.37191 88.5109 3.50377 88.3791 3.6796C88.2472 3.81147 88.1153 3.89938 87.9835 3.89938C87.9395 3.89938 87.7637 3.72355 87.3681 3.41586C86.9725 3.10817 86.5769 2.93235 86.0934 2.93235C85.434 2.93235 84.8626 3.06421 84.3351 3.28399C83.8516 3.50377 83.5879 3.72355 83.5879 3.94334C84.0714 4.47081 84.3351 4.86641 84.3351 5.08619C84.3351 5.26202 84.2472 5.39388 84.0714 5.39388C83.9835 5.39388 83.8516 5.39388 83.7197 5.34993C83.5879 5.34993 83.4999 5.30597 83.456 5.30597C83.1483 5.30597 82.8846 5.34993 82.7087 5.43784C82.5769 5.52575 82.445 5.56971 82.3131 5.61366C82.1373 5.65762 81.9175 5.65762 81.7417 5.65762C81.434 5.70158 81.1263 5.83344 80.7747 6.05323C79.7197 6.71257 78.9725 7.41586 78.6208 8.0752C77.478 10.273 76.9065 11.9433 76.9065 13.1741C76.9065 13.2181 76.9945 13.306 77.1263 13.4378C78.0054 10.273 79.0164 8.69059 80.1153 8.69059C80.6428 8.69059 81.0384 8.91037 81.3901 9.39388C81.7417 9.8774 81.9175 10.4928 81.9175 11.284C81.9175 12.251 81.8296 13.0422 81.6098 13.7016C81.3901 14.3609 81.1703 14.6686 80.9065 14.6686C80.5989 14.6686 80.423 14.4928 80.2912 14.1411C80.5549 13.7016 80.6868 13.4378 80.6868 13.262C80.6868 12.3389 80.3791 11.8554 79.7637 11.8554C79.1923 11.8554 78.7967 11.9873 78.5329 12.2071C78.2692 12.4269 78.0055 12.8664 77.6978 13.5697C78.3571 13.7455 78.8406 13.9214 79.1043 14.0972C79.412 14.273 79.5439 14.5367 79.5439 14.8005C79.5439 15.0203 79.456 15.284 79.2802 15.5477C79.1043 15.8115 78.8846 15.9873 78.7087 16.0752C78.489 16.1631 78.2692 16.251 78.0494 16.3389C77.8296 16.4269 77.7417 16.5587 77.7417 16.7785C77.7417 17.1301 78.0494 17.6137 78.6648 18.229C79.3241 18.8884 79.9395 19.24 80.5109 19.24C81.2582 19.24 82.0494 18.8444 82.8846 18.0093C82.9285 18.0972 82.9725 18.1851 82.9725 18.317C82.9725 18.6247 82.8406 18.8444 82.5769 19.0203C82.2252 19.284 82.0494 19.4159 82.0054 19.4598C82.0934 19.5038 82.1813 19.5038 82.2692 19.5038H82.4011C82.9725 19.5038 83.4999 19.284 83.9835 18.8005C84.467 18.317 84.7307 17.8334 84.7307 17.262C84.7307 17.1741 84.6868 17.0862 84.5989 16.9983C84.5109 16.9104 84.423 16.8664 84.3351 16.8664C84.2912 16.8664 84.1153 16.9543 83.9395 17.0862C83.7197 17.2181 83.5879 17.306 83.5 17.306C82.7967 17.306 82.489 16.9543 82.489 16.251C82.489 15.9433 82.5329 15.6796 82.6648 15.4598C82.7527 15.24 82.8846 15.1521 83.0164 15.1521C83.0604 15.1521 83.1043 15.1521 83.1483 15.1961C83.1923 15.24 83.2362 15.24 83.2362 15.24C83.3241 15.24 83.4999 15.1961 83.6758 15.1521C83.8956 15.1082 84.0714 15.0642 84.1593 15.0642C84.5989 15.0642 84.9505 15.284 85.3021 15.7236C85.6538 16.1631 85.8736 16.7345 85.9615 17.5258C86.7966 17.2181 87.412 17.0862 87.8076 17.0862C88.2032 17.0862 88.423 17.262 88.5109 17.6137L88.2912 17.7016C88.0274 17.5258 87.8076 17.3939 87.7197 17.3499C87.1923 17.4818 86.7527 17.7016 86.3571 18.0093C86.1373 18.1851 85.7857 18.4928 85.3461 18.8884C84.9065 19.328 84.5549 19.6356 84.2912 19.8115C83.7197 20.2071 83.0164 20.4269 82.2252 20.4269C80.2472 20.4269 78.8846 19.8994 78.1373 18.8005C78.0055 18.6247 77.7857 18.1411 77.478 17.4818C77.3022 17.0862 77.0824 16.9104 76.8186 16.9104C76.6428 16.9104 76.423 16.9543 76.1593 17.0862C76.2472 17.5697 76.423 18.1411 76.5989 18.7565C76.7747 19.24 76.8626 19.5477 76.8626 19.6356C76.8626 19.8554 76.7307 20.2071 76.423 20.6027C76.1153 20.9983 75.8956 21.2181 75.7637 21.2181C75.6318 21.2181 75.412 20.9983 75.0604 20.5148C74.7087 20.0312 74.5329 19.6796 74.5329 19.4159C74.5329 19.1082 74.6208 18.7126 74.8406 18.229C75.0604 17.7455 75.1483 17.4378 75.1483 17.306C75.1483 17.1741 75.1043 17.0862 74.9725 16.9543C74.8846 16.8225 74.7527 16.7785 74.7087 16.7785C74.5329 16.7785 74.3131 16.9543 74.0494 17.3499C73.2582 18.4049 72.5549 19.1521 72.0274 19.5477C71.2802 20.1192 70.4011 20.3829 69.3461 20.3829C68.7747 20.3829 68.2033 20.251 67.5439 19.9873C66.8846 19.7236 66.3571 19.3719 65.8736 18.9763C65.7857 18.8884 65.6538 18.7126 65.434 18.4488C65.2582 18.1851 65.0824 18.0093 64.8626 17.8334C64.3351 17.4378 63.9835 17.262 63.7637 17.262C63.6318 17.262 63.456 17.3499 63.2802 17.5258C63.0604 17.7016 62.9725 17.7895 62.9285 17.7895C62.7967 17.7895 62.7088 17.7455 62.7088 17.6576C62.2692 16.6466 62.8406 16.295 63.9835 16.295ZM74.489 14.9323H76.5989C77.478 14.9323 77.9175 14.8005 77.9175 14.4928C77.9175 14.229 76.9065 14.0972 74.9285 14.0972C73.6978 14.0972 73.0824 14.273 73.0824 14.6247C73.0824 14.8444 73.5219 14.9323 74.489 14.9323Z" fill="#B28A5E"/>
<path d="M125.258 11.4159C125.346 11.4159 125.434 11.4598 125.522 11.4598C126.929 12.295 127.94 13.5258 126.973 15.0203C126.797 15.328 126.841 15.9873 127.544 16.251C128.159 16.4708 128.907 15.8115 129.038 15.5477C130.753 12.8664 127.28 10.8445 124.907 10.0972C121.874 9.13017 118.621 9.13016 115.544 9.92137C115.412 9.96533 115.324 9.96533 115.192 10.0093C114.401 9.48181 113.478 9.08621 112.643 8.82247C109.61 7.85544 106.357 7.85544 103.28 8.64665C101.654 9.04225 100.247 9.74555 98.8407 10.5368C98.9725 9.83346 99.3242 9.13016 99.8077 8.60269C100.027 8.38291 100.159 7.67962 99.3681 7.45984C98.7527 7.28401 97.9615 7.81148 97.7418 8.03126C96.6868 9.13016 96.4231 10.4928 96.6868 11.7675C95.8517 12.251 94.9725 12.7346 94.0495 13.0862C92.1154 13.9214 89.3462 14.273 87.6758 12.7785C86.0934 11.3719 86.1374 8.77852 87.544 7.32797C87.7637 7.10819 87.8956 6.40489 87.1044 6.18511C86.489 6.00929 85.6978 6.53676 85.478 6.75654C83.9835 8.295 84.0275 10.4049 85.0824 12.0313C86.9725 15.8994 91.5879 16.9104 95.7637 16.0752C96.7308 15.8994 97.6538 15.5477 98.6209 15.1521C100.907 17.4818 104.599 18.0093 108.027 17.3499C110.357 16.8664 112.511 15.6796 114.665 14.4488C114.753 14.6686 114.929 14.8445 115.236 14.9763C115.852 15.1961 116.599 14.5368 116.731 14.273C116.994 13.8335 117.126 13.4379 117.17 13.0423C119.764 11.8115 122.357 10.8445 125.258 11.4159ZM93.5659 15.5477C91.9835 15.8115 90.489 15.4159 89.3022 14.6247C91.1484 14.9324 93.2143 14.6686 94.8407 14.2291C95.7198 14.0093 96.5549 13.6576 97.3462 13.262C97.3462 13.306 97.3901 13.306 97.3901 13.3499C97.522 13.6576 97.6978 13.9214 97.8736 14.1851C96.511 14.8005 95.1044 15.284 93.5659 15.5477ZM98.9725 12.3829C100.555 11.4598 102.137 10.4488 103.852 9.78951C105.83 9.04225 108.115 8.82247 110.181 9.13016C110.313 9.13016 110.401 9.17412 110.533 9.17412C107.236 9.34995 104.071 10.6686 101.302 12.339C100.687 12.7346 100.027 13.0862 99.4121 13.4379C99.1923 13.1302 99.0604 12.7785 98.9725 12.3829ZM113.038 10.1851C113.126 10.1851 113.214 10.2291 113.302 10.2291C113.478 10.317 113.654 10.4488 113.83 10.5807C111.236 11.6357 108.995 13.3499 106.357 14.4928C104.555 15.2401 102.006 15.5917 100.335 14.4488C104.423 12.251 108.335 9.21808 113.038 10.1851ZM115.104 12.7346C114.577 12.9983 114.049 13.306 113.522 13.6137C111.104 15.0642 108.687 16.3829 105.786 16.8225C104.203 17.0862 102.709 16.6906 101.522 15.8994C103.368 16.2071 105.434 15.9434 107.06 15.5038C109.874 14.7565 112.203 12.8664 114.841 11.5917C115.06 11.9434 115.148 12.339 115.104 12.7346ZM116.995 11.8554C116.863 11.5477 116.643 11.2401 116.379 10.9763C118.269 10.317 120.423 10.1412 122.401 10.4049C122.533 10.4049 122.621 10.4488 122.753 10.4488C120.775 10.5368 118.841 11.0642 116.995 11.8554ZM27.8077 13.5258C26.7528 16.0752 24.2033 17.8774 21.1264 17.3939C18.2253 16.9543 15.8077 15.6796 13.3901 14.2291C9.69782 12.0313 5.43409 10.4049 0.994527 11.284C-0.499978 11.5917 0.730791 12.2071 1.65387 12.0313C8.02749 10.7565 12.9506 16.8225 18.8407 17.9653C23.1923 18.8445 27.9835 17.7456 29.7418 13.4818C29.9616 12.8664 28.0275 12.9543 27.8077 13.5258ZM150.005 11.2401C145.566 10.3609 141.302 11.9873 137.61 14.1851C135.192 15.6357 132.731 16.9104 129.874 17.3499C126.841 17.8335 124.247 16.0313 123.192 13.4818C122.973 12.9543 120.995 12.8664 121.258 13.4379C123.016 17.7016 127.808 18.8005 132.159 17.9214C138.049 16.7346 142.973 10.7126 149.346 11.9873C150.313 12.2071 151.5 11.5477 150.005 11.2401Z" fill="#B28A5E"/>
<path d="M64.8626 6.84449C64.6428 6.62471 63.8076 6.09724 63.2362 6.27306C62.445 6.49284 62.5769 7.19614 62.7966 7.41592C64.2032 8.86647 64.2472 11.4599 62.6648 12.8665C61.0384 14.317 58.2252 13.9654 56.2911 13.1742C55.3681 12.7786 54.5329 12.339 53.6538 11.8555C53.9615 10.5808 53.6538 9.21812 52.5988 8.11922C52.3791 7.89944 51.5439 7.37196 50.9725 7.54779C50.1813 7.76757 50.3131 8.47086 50.5329 8.69064C51.0604 9.21812 51.3681 9.92141 51.4999 10.6247C50.0933 9.8335 48.6428 9.1302 47.0604 8.7346C43.9835 7.98735 40.7307 7.94339 37.6977 8.91042C36.9065 9.17416 35.9835 9.56977 35.1483 10.0972C35.0164 10.0533 34.9285 10.0533 34.7966 10.0093C31.7197 9.26207 28.467 9.21812 25.434 10.1851C23.1483 10.8884 19.6758 12.9104 21.39 15.5917C21.5219 15.8115 22.2692 16.5148 22.8846 16.295C23.5878 16.0313 23.6318 15.328 23.456 15.0643C22.4889 13.5698 23.4999 12.339 24.9065 11.5038C24.9944 11.5038 25.0824 11.5038 25.1703 11.4599C28.0714 10.8884 30.6648 11.8115 33.1703 13.1302C33.2142 13.5258 33.3461 13.9214 33.6098 14.361C33.7417 14.5808 34.4889 15.284 35.1043 15.0643C35.412 14.9324 35.5878 14.7566 35.6758 14.5368C37.8296 15.7676 40.0274 16.9983 42.3131 17.4379C45.7417 18.1412 49.434 17.5698 51.7197 15.2401C52.6428 15.6357 53.5659 15.9873 54.5769 16.1632C58.7527 16.9983 63.3681 16.0313 65.2582 12.1192C66.3131 10.4489 66.3571 8.38295 64.8626 6.84449ZM40.2472 9.1302C42.3571 8.86647 44.5988 9.04229 46.5769 9.78955C48.2911 10.4489 49.8736 11.4599 51.456 12.383C51.3681 12.7346 51.1922 13.0862 50.9725 13.4379C50.3571 13.0862 49.6977 12.7346 49.0824 12.339C46.2692 10.6687 43.1483 9.30603 39.8516 9.17416C40.0274 9.17416 40.1153 9.1302 40.2472 9.1302ZM28.0274 10.4049C30.0054 10.1412 32.1593 10.317 34.0494 10.9764C33.7857 11.2401 33.5659 11.5478 33.434 11.8555C31.5878 11.0643 29.6538 10.5368 27.6758 10.4489C27.7637 10.4489 27.8955 10.4049 28.0274 10.4049ZM44.6428 16.8225C41.7417 16.383 39.3241 15.1082 36.9065 13.6577C36.3791 13.35 35.8516 13.0423 35.3241 12.7786C35.2802 12.383 35.3681 11.9873 35.5878 11.6357C38.2252 12.8665 40.5549 14.7566 43.3681 15.5038C44.9944 15.9434 47.0604 16.2071 48.9065 15.8994C47.7197 16.6906 46.2692 17.0423 44.6428 16.8225ZM44.0714 14.4049C41.478 13.306 39.2362 11.5478 36.5988 10.4928C36.7747 10.361 36.9505 10.2731 37.1263 10.1412C37.2142 10.1412 37.3021 10.1412 37.39 10.0972C42.0933 9.17416 46.0054 12.2071 50.0933 14.317C48.423 15.5478 45.8736 15.1961 44.0714 14.4049ZM56.9065 15.5478C55.3681 15.328 53.9175 14.8445 52.5549 14.2291C52.7307 13.9654 52.9065 13.7016 53.0384 13.3939C53.0384 13.35 53.0824 13.35 53.0824 13.306C53.8736 13.7016 54.7087 14.0533 55.5878 14.2731C57.2142 14.7126 59.2802 14.9764 61.1263 14.6687C59.9395 15.4159 58.4889 15.7676 56.9065 15.5478Z" fill="#B28A5E"/>
</g>
<defs>
<clipPath id="clip0">
<rect width="150.418" height="20" fill="white" transform="translate(0.29126 0.998291)"/>
</clipPath>
</defs>
</svg>
