<svg width="20" height="21" viewBox="0 0 20 21" fill="none" xmlns="http://www.w3.org/2000/svg">
<path d="M18.9 14.5549C17.5333 14.5549 16.2111 14.3327 14.9778 13.9326C14.5889 13.7993 14.1556 13.8993 13.8556 14.1993L12.1111 16.3882C8.96667 14.8882 6.02222 12.0549 4.45556 8.79932L6.62222 6.95487C6.92222 6.64376 7.01111 6.21043 6.88889 5.82154C6.47778 4.58821 6.26667 3.26598 6.26667 1.89932C6.26667 1.29932 5.76667 0.799316 5.16667 0.799316H1.32222C0.722222 0.799316 0 1.06598 0 1.89932C0 12.2215 8.58889 20.7993 18.9 20.7993C19.6889 20.7993 20 20.0993 20 19.4882V15.6549C20 15.0549 19.5 14.5549 18.9 14.5549Z" fill="#8B0029"/>
</svg>
