<svg width="43" height="44" viewBox="0 0 43 44" fill="none" xmlns="http://www.w3.org/2000/svg">
<path d="M20.9862 16.7483H25.1529V10.4983H31.4029V6.33167H25.1529V0.081665H20.9862V6.33167H14.7362V10.4983H20.9862V16.7483ZM12.6529 35.4983C10.3612 35.4983 8.50706 37.3733 8.50706 39.665C8.50706 41.9567 10.3612 43.8317 12.6529 43.8317C14.9446 43.8317 16.8196 41.9567 16.8196 39.665C16.8196 37.3733 14.9446 35.4983 12.6529 35.4983ZM33.4862 35.4983C31.1946 35.4983 29.3404 37.3733 29.3404 39.665C29.3404 41.9567 31.1946 43.8317 33.4862 43.8317C35.7779 43.8317 37.6529 41.9567 37.6529 39.665C37.6529 37.3733 35.7779 35.4983 33.4862 35.4983ZM13.0071 28.7275L13.0696 28.4775L14.9446 25.0817H30.4654C32.0279 25.0817 33.4029 24.2275 34.1112 22.9358L42.1529 8.33167L38.5279 6.33167H38.5071L36.2154 10.4983L30.4654 20.915H15.8404L15.5696 20.3525L10.9029 10.4983L8.92373 6.33167L6.96539 2.165H0.152893V6.33167H4.31956L11.8196 22.1442L9.00706 27.2483C8.67373 27.8317 8.48623 28.5192 8.48623 29.2483C8.48623 31.54 10.3612 33.415 12.6529 33.415H37.6529V29.2483H13.5279C13.2571 29.2483 13.0071 29.0192 13.0071 28.7275Z" fill="white"/>
</svg>
