<svg width="40" height="41" viewBox="0 0 40 41" fill="none" xmlns="http://www.w3.org/2000/svg">
<path d="M37.1998 22.4291L36.164 18.2857C36.4472 18.2256 36.6597 17.9743 36.6597 17.6733V17.0052C36.6597 15.5548 35.4796 14.3748 34.0292 14.3748H29.3111V12.9969C29.3111 12.2831 28.7305 11.7025 28.0167 11.7025H19.2438L24.575 9.57002C24.8962 9.44158 25.0523 9.07705 24.9239 8.75587C24.7955 8.43478 24.4312 8.27845 24.1098 8.40697L19.7446 10.153C21.0748 9.29955 22.3908 8.36025 22.8918 7.70337C23.8672 6.42455 23.6202 4.59064 22.3413 3.61525C21.0625 2.63978 19.2286 2.88689 18.2532 4.16572C17.5405 5.10025 16.6002 7.72611 15.9916 9.5765C15.383 7.72627 14.4427 5.10025 13.7301 4.16572C12.7548 2.88689 10.9208 2.63994 9.64195 3.61525C8.36312 4.59056 8.11617 6.42447 9.09148 7.70337C9.5925 8.36033 10.9084 9.29955 12.2387 10.153L7.87352 8.40697C7.55219 8.2783 7.18781 8.4347 7.05937 8.75587C6.93086 9.07705 7.08711 9.44158 7.40828 9.57002L12.7395 11.7025H3.96656C3.25281 11.7025 2.67219 12.2831 2.67219 12.9969V24.3539C2.67219 24.6998 2.95258 24.9802 3.29852 24.9802C3.64438 24.9802 3.92484 24.6999 3.92484 24.3539V12.9969C3.92484 12.9738 3.94352 12.9552 3.96656 12.9552H28.0166C28.0397 12.9552 28.0584 12.9738 28.0584 12.9969V24.3541C28.0584 24.6999 28.3388 24.9804 28.6847 24.9804C29.0305 24.9804 29.311 24.7 29.311 24.3541V23.6441H36.699C36.6997 23.6441 36.7002 23.6442 36.7009 23.6442C36.7016 23.6442 36.7023 23.6442 36.703 23.6442C37.612 23.6449 38.3839 24.2416 38.6489 25.0638H36.7014C36.3555 25.0638 36.0751 25.3442 36.0751 25.6901V27.0262C36.0751 28.1083 36.9554 28.9886 38.0375 28.9886H38.7473V31.7443H37.1097C36.5717 30.191 35.0951 29.072 33.3611 29.072C31.6271 29.072 30.1504 30.191 29.6125 31.7443H29.3109V27.0261C29.3109 26.6802 29.0305 26.3998 28.6846 26.3998C28.3387 26.3998 28.0583 26.6802 28.0583 27.0261V31.7442H15.0638C14.5259 30.191 13.0492 29.072 11.3152 29.072C9.58125 29.072 8.10453 30.1909 7.56664 31.7442H3.96656C3.94352 31.7442 3.92484 31.7256 3.92484 31.7025V30.3246H6.63883C6.98469 30.3246 7.26516 30.0442 7.26516 29.6983C7.26516 29.3524 6.98477 29.072 6.63883 29.072H0.626328C0.280469 29.072 0 29.3524 0 29.6983C0 30.0442 0.280391 30.3246 0.626328 30.3246H2.67227V31.7025C2.67227 32.4163 3.25289 32.9969 3.96664 32.9969H7.34977C7.34961 33.0108 7.34867 33.0246 7.34867 33.0386C7.34867 35.2257 9.12813 37.0052 11.3152 37.0052C13.5023 37.0052 15.2818 35.2257 15.2818 33.0386C15.2818 33.0245 15.2809 33.0108 15.2807 32.9969H29.3955C29.3954 33.0108 29.3945 33.0246 29.3945 33.0386C29.3945 35.2257 31.1739 37.0052 33.361 37.0052C35.5481 37.0052 37.3276 35.2257 37.3276 33.0386C37.3276 33.0245 37.3266 33.0108 37.3265 32.9969H39.3736C39.7195 32.9969 39.9999 32.7165 39.9999 32.3706V25.69C40 24.0405 38.783 22.67 37.1998 22.4291ZM13.5078 9.46978C11.0373 7.93455 10.3045 7.22822 10.0875 6.94369C9.53102 6.21408 9.67195 5.16775 10.4016 4.61127C10.7024 4.38189 11.057 4.27103 11.4089 4.27103C11.9106 4.27103 12.407 4.4965 12.7341 4.92541C13.34 5.71978 14.2888 8.39345 14.9152 10.3201C14.4925 10.0712 14.0066 9.77986 13.5078 9.46978ZM17.0682 10.32C17.6946 8.39345 18.6434 5.71986 19.2492 4.92533C19.8057 4.19572 20.852 4.05486 21.5816 4.61127C22.3113 5.16775 22.4522 6.21408 21.8958 6.94369C21.6788 7.22814 20.946 7.93455 18.4756 9.4697C17.977 9.7797 17.491 10.0711 17.0682 10.32ZM29.3111 15.6273H34.0292C34.789 15.6273 35.4071 16.2454 35.4071 17.0052V17.0469H29.3111V15.6273ZM29.3111 22.3914V18.2995H34.8763L35.8993 22.3914H29.3111ZM11.3152 35.7526C9.81875 35.7526 8.60125 34.5351 8.60125 33.0386C8.60125 31.5421 9.81875 30.3246 11.3152 30.3246C12.8117 30.3246 14.0292 31.5421 14.0292 33.0386C14.0292 34.5351 12.8117 35.7526 11.3152 35.7526ZM33.3612 35.7526C31.8647 35.7526 30.6472 34.5351 30.6472 33.0386C30.6472 31.5421 31.8647 30.3246 33.3612 30.3246C34.8577 30.3246 36.0752 31.5421 36.0752 33.0386C36.0752 34.5351 34.8577 35.7526 33.3612 35.7526ZM38.7474 27.7359H38.0376C37.6462 27.7359 37.3277 27.4174 37.3277 27.026V26.3162H38.7473V27.7359H38.7474Z" fill="white"/>
<path d="M11.3152 31.7446C10.6015 31.7446 10.0209 32.3253 10.0209 33.039C10.0209 33.7528 10.6015 34.3334 11.3152 34.3334C12.029 34.3334 12.6096 33.7528 12.6096 33.039C12.6096 32.3253 12.029 31.7446 11.3152 31.7446Z" fill="white"/>
<path d="M33.3612 31.7446C32.6474 31.7446 32.0668 32.3253 32.0668 33.039C32.0668 33.7528 32.6474 34.3334 33.3612 34.3334C34.0749 34.3334 34.6555 33.7528 34.6555 33.039C34.6555 32.3253 34.0749 31.7446 33.3612 31.7446Z" fill="white"/>
<path d="M26.0124 29.072H16.6597C16.3138 29.072 16.0333 29.3524 16.0333 29.6983C16.0333 30.0443 16.3137 30.3247 16.6597 30.3247H26.0124C26.3583 30.3247 26.6388 30.0443 26.6388 29.6983C26.6388 29.3524 26.3584 29.072 26.0124 29.072Z" fill="white"/>
<path d="M9.9791 26.4001H1.96239C1.61653 26.4001 1.33606 26.6805 1.33606 27.0265C1.33606 27.3724 1.61645 27.6528 1.96239 27.6528H9.9791C10.325 27.6528 10.6054 27.3724 10.6054 27.0265C10.6054 26.6805 10.325 26.4001 9.9791 26.4001Z" fill="white"/>
<path d="M9.97914 17.0471H7.30687C6.96101 17.0471 6.68054 17.3275 6.68054 17.6734V23.0179C6.68054 23.3638 6.96093 23.6442 7.30687 23.6442C7.65281 23.6442 7.9332 23.3639 7.9332 23.0179V20.972H9.31109C9.65695 20.972 9.93742 20.6916 9.93742 20.3456C9.93742 19.9997 9.65703 19.7193 9.31109 19.7193H7.9332V18.2998H9.97914C10.325 18.2998 10.6055 18.0194 10.6055 17.6734C10.6054 17.3276 10.325 17.0471 9.97914 17.0471Z" fill="white"/>
<path d="M14.908 21.2656C15.5347 20.8551 15.9499 20.1471 15.9499 19.3436C15.9499 18.0773 14.9197 17.0471 13.6534 17.0471H11.9833C11.6374 17.0471 11.3569 17.3275 11.3569 17.6734V23.0179C11.3569 23.3638 11.6373 23.6442 11.9833 23.6442C12.3292 23.6442 12.6096 23.3639 12.6096 23.0179V21.64H13.6522L14.8024 23.3653C14.9231 23.5463 15.1216 23.6442 15.324 23.6442C15.4435 23.6442 15.5641 23.6102 15.6708 23.5389C15.9587 23.3471 16.0365 22.9582 15.8445 22.6705L14.908 21.2656ZM13.6534 20.3874H12.6096V18.2998H13.6534C14.229 18.2998 14.6972 18.768 14.6972 19.3436C14.6972 19.9192 14.229 20.3874 13.6534 20.3874Z" fill="white"/>
<path d="M20 22.3917H17.9541V20.9699C17.9679 20.9709 17.9817 20.9721 17.9958 20.9721H19.3319C19.6777 20.9721 19.9582 20.6917 19.9582 20.3457C19.9582 19.9998 19.6778 19.7194 19.3319 19.7194H17.9958C17.9816 19.7194 17.9679 19.7206 17.9541 19.7215V18.2998H20C20.3459 18.2998 20.6263 18.0194 20.6263 17.6734C20.6263 17.3276 20.3459 17.0471 20 17.0471H17.3277C16.9819 17.0471 16.7014 17.3275 16.7014 17.6734V23.0179C16.7014 23.3638 16.9818 23.6442 17.3277 23.6442H20C20.3459 23.6442 20.6263 23.3639 20.6263 23.0179C20.6263 22.672 20.3459 22.3917 20 22.3917Z" fill="white"/>
<path d="M24.6764 22.3917H22.6305V20.9721H23.3403C23.6862 20.9721 23.9666 20.6917 23.9666 20.3457C23.9666 19.9998 23.6862 19.7194 23.3403 19.7194H22.6305V18.2998H24.6764C25.0223 18.2998 25.3027 18.0194 25.3027 17.6734C25.3027 17.3276 25.0223 17.0471 24.6764 17.0471H22.0041C21.6583 17.0471 21.3778 17.3275 21.3778 17.6734V23.0179C21.3778 23.3638 21.6582 23.6442 22.0041 23.6442H24.6764C25.0223 23.6442 25.3027 23.3639 25.3027 23.0179C25.3027 22.672 25.0223 22.3917 24.6764 22.3917Z" fill="white"/>
</svg>
