<svg width="40" height="41" viewBox="0 0 40 41" fill="none" xmlns="http://www.w3.org/2000/svg">
<path d="M33.7527 14.3506L33.7524 14.3498C32.9366 12.3523 33.4633 10.0315 35.0581 8.56843L35.059 8.56758C35.1981 8.44037 35.216 8.2263 35.0982 8.07697L35.0979 8.07657C34.1944 6.92962 33.1687 5.8943 32.0497 4.99794L32.0494 4.99763C31.9029 4.88017 31.6836 4.89632 31.5553 5.0382C30.1515 6.59295 27.6718 7.16181 25.7216 6.34819L25.7195 6.34731C23.7042 5.49936 22.4357 3.45961 22.5604 1.27122L22.5605 1.26923C22.5719 1.07964 22.4341 0.912998 22.2408 0.890366C20.8025 0.723863 19.3521 0.719085 17.9103 0.879039L17.91 0.879074C17.7225 0.899798 17.5813 1.06151 17.5872 1.25277C17.6626 3.41712 16.3818 5.42063 14.3832 6.23933L14.3826 6.2396C12.4541 7.02744 9.99308 6.46231 8.59294 4.9221L9.14783 4.41768L8.59379 4.92303C8.46659 4.78357 8.25217 4.76438 8.10049 4.88206C6.94721 5.78727 5.89874 6.82332 4.98849 7.95905L4.98794 7.95974C4.8686 8.10828 4.88515 8.32493 5.02653 8.45418C6.65287 9.92746 7.17891 12.2706 6.33249 14.2899L6.33234 14.2903C5.51116 16.2465 3.50741 17.4534 1.28916 17.4534H1.2771L1.26503 17.453C1.12802 17.4486 1.04465 17.4905 0.994214 17.5347C0.941187 17.5812 0.892734 17.6586 0.878308 17.7749C0.709512 19.2188 0.707624 20.6922 0.870495 22.1501C0.870811 22.1529 0.885708 22.228 1.02232 22.3245C1.15312 22.4169 1.31242 22.4655 1.4299 22.4673C3.48505 22.4203 5.42962 23.6882 6.24583 25.6723L6.2462 25.6732C7.06526 27.6717 6.5372 29.9919 4.94046 31.4564L4.43353 30.9036M33.7527 14.3506L34.3559 26.0253C33.633 27.7482 34.0843 29.754 35.4763 31.014L34.9727 31.5697C34.9728 31.5698 34.9729 31.5699 34.973 31.57C35.1146 31.6987 35.1313 31.9149 35.0115 32.0637L35.0107 32.0647C34.0961 33.2039 33.0499 34.239 31.8998 35.1412C31.7454 35.2594 31.5331 35.2401 31.4039 35.1003C30.0038 33.5647 27.554 32.9938 25.6142 33.7861L25.6137 33.7864C23.6176 34.6034 22.3335 36.607 22.4112 38.7716C22.4172 38.9634 22.2761 39.1246 22.0889 39.1453L22.0882 39.1454C21.3842 39.2237 20.68 39.2622 19.9756 39.2622C19.2334 39.2622 18.4939 39.2196 17.7586 39.1336L17.7566 39.1333C17.5682 39.1118 17.4276 38.9458 17.439 38.7542L17.4391 38.7524C17.5629 36.5639 16.2952 34.5239 14.2742 33.6779C12.3291 32.8614 9.84992 33.431 8.44222 34.9872C8.31117 35.1312 8.0945 35.1467 7.94605 35.0271C6.82212 34.1218 5.79543 33.0855 4.90233 31.9472L4.90043 31.9448C4.78466 31.7985 4.80033 31.5852 4.94106 31.4558L4.43353 30.9036M33.7527 14.3506C34.5531 16.3042 36.4586 17.5567 38.5878 17.5567C38.6982 17.5567 38.8521 17.6032 38.9795 17.6956M33.7527 14.3506L38.9795 17.6956M4.43353 30.9036C4.00573 31.2968 3.95107 31.9537 4.31226 32.4102L0.125141 22.2334C0.188281 22.798 0.863445 23.2174 1.43672 23.2174C3.17869 23.1731 4.85008 24.2508 5.55223 25.9576C6.25092 27.6624 5.80115 29.6493 4.43353 30.9036ZM35.687 7.61248C36.0475 8.06951 35.9951 8.72789 35.5651 9.12109L35.687 7.61248ZM35.687 7.61248C34.7488 6.4213 33.6828 5.34516 32.5186 4.41259L35.687 7.61248ZM16.1447 12.6178C15.9319 12.4049 15.8504 12.1259 15.9227 11.8536L16.6476 12.0462C16.6475 12.0464 16.6475 12.0465 16.6475 12.0464C16.6476 12.0461 16.6482 12.0446 16.6496 12.0422C16.6516 12.0388 16.6546 12.0346 16.6588 12.0304C16.6629 12.0263 16.667 12.0232 16.6703 12.0213C16.6724 12.02 16.6737 12.0195 16.6741 12.0194C17.2162 11.8718 17.7768 11.7969 18.3402 11.7969C20.0291 11.7969 21.6133 12.4531 22.8076 13.6474L22.8077 13.6475C24.0023 14.8417 24.6586 16.4259 24.6586 18.1151V18.1153C24.6587 18.9787 24.486 19.8133 24.1597 20.5826L23.9623 21.0482L24.3198 21.4058L29.3686 26.4547L30.0485 27.1347L30.5424 26.3097C31.645 24.4679 32.2799 22.3136 32.2799 20.0125C32.2799 13.2303 26.7818 7.73243 19.9997 7.73243C13.2175 7.73243 7.71946 13.2303 7.71946 20.0125C7.71946 26.7946 13.2173 32.2925 19.9997 32.2925C22.4329 32.2925 24.7002 31.5813 26.6084 30.3603L27.3939 29.8576L26.7345 29.1982L21.6309 24.0946L21.2732 23.737L20.8076 23.9345C20.0386 24.2607 19.2039 24.4333 18.3404 24.4333C16.6511 24.4333 15.0667 23.7772 13.8721 22.5827C12.2778 20.9882 11.6523 18.6415 12.2413 16.4609C12.2479 16.4368 12.2595 16.4222 12.2676 16.415C12.2701 16.4163 12.2733 16.418 12.2772 16.4206C12.2851 16.4256 12.2982 16.4353 12.3155 16.4525L12.3165 16.4536L12.845 15.9213L12.3166 16.4536L12.3166 16.4537L12.317 16.454L12.3183 16.4553L12.3234 16.4604L12.3436 16.4805L12.4211 16.5574L12.7042 16.8385L13.6222 17.7506C14.3295 18.4537 15.1444 19.2643 15.5775 19.6974L15.5778 19.6977C15.6508 19.7706 15.7265 19.8303 15.8027 19.8791L15.7935 20.145L16.5297 20.0791C16.5603 20.0781 16.5899 20.076 16.6175 20.0727L16.6664 20.067L16.6678 20.0667C17.5911 19.9828 18.7668 19.8159 19.279 19.6515L19.457 19.5943L19.5874 19.4603C19.5966 19.4508 19.6036 19.4436 19.6094 19.4376C19.6196 19.4271 19.6263 19.4201 19.6355 19.4109C19.6355 19.4109 19.6355 19.4109 19.6355 19.4109C19.6356 19.4108 19.6357 19.4107 19.636 19.4104L19.6379 19.4086L19.6466 19.4004C19.6537 19.3936 19.6695 19.3789 19.6862 19.3623L19.8177 19.232L19.8735 19.0555C20.0335 18.5496 20.1992 17.3867 20.2834 16.4763L20.2879 16.4449C20.3051 16.3324 20.3073 16.1928 20.2898 16.0575C20.2758 15.9488 20.2292 15.6607 20.0015 15.433L20.0015 15.433C19.5856 15.0172 18.7549 14.1818 18.0273 13.4493L17.0794 12.4949L16.7857 12.199L16.7052 12.1179L16.6842 12.0968L16.6788 12.0914L16.6775 12.09L16.6771 12.0896L16.6771 12.0896L16.1447 12.6178ZM16.1447 12.6178L16.677 12.0895L16.6752 12.0877C16.6526 12.0651 16.6476 12.0506 16.647 12.0487L16.1447 12.6178ZM38.9795 17.6956C39.109 17.7895 39.1274 17.8656 39.1285 17.8755L38.9795 17.6956Z" stroke="white" stroke-width="1.5"/>
</svg>
