<svg width="11" height="19" viewBox="0 0 11 19" fill="none" xmlns="http://www.w3.org/2000/svg">
<path d="M2.72652 17.8458C2.51125 18.061 2.23728 18.1784 1.91438 18.1784C1.26859 18.1784 0.75 17.6696 0.75 17.0238C0.75 16.7009 0.886987 16.4074 1.11204 16.1823L7.96135 9.48959L1.11204 2.8164C0.886987 2.59135 0.75 2.28802 0.75 1.97491C0.75 1.32912 1.26859 0.820312 1.91438 0.820312C2.23728 0.820312 2.51125 0.937729 2.72652 1.15299L10.339 8.58939C10.613 8.8438 10.7402 9.15691 10.75 9.49937C10.75 9.84184 10.613 10.1354 10.339 10.3996L2.72652 17.8458Z" fill="white"/>
</svg>
