<svg width="14" height="14" viewBox="0 0 14 14" fill="none" xmlns="http://www.w3.org/2000/svg">
<path d="M6.70578 11.2199C6.88116 11.0923 7.11884 11.0923 7.29422 11.2199L10.6993 13.698C11.0912 13.9832 11.619 13.5998 11.4689 13.1389L10.1671 9.14172C10.0994 8.93391 10.1745 8.70621 10.3526 8.5795L13.7249 6.17985C14.1215 5.89756 13.9218 5.27246 13.435 5.27246H9.29754C9.08047 5.27246 8.88821 5.13241 8.82163 4.92581L7.4759 0.749406C7.32697 0.287202 6.67303 0.287201 6.5241 0.749405L5.17837 4.92581C5.11179 5.13241 4.91953 5.27246 4.70246 5.27246H0.565043C0.0781673 5.27246 -0.121541 5.89756 0.275151 6.17985L3.64739 8.5795C3.82546 8.70621 3.9006 8.93391 3.83292 9.14172L2.53109 13.1389C2.38098 13.5998 2.90879 13.9832 3.30073 13.698L6.70578 11.2199Z" fill="#D8B564"/>
</svg>
